<svg width="32" height="32" viewBox="0 0 32 32" fill="none" xmlns="http://www.w3.org/2000/svg">
<path d="M11.6587 4.60747C11.5781 4.55759 11.5133 4.48579 11.4719 4.40047C11.4305 4.31515 11.4143 4.21982 11.425 4.1256C11.4357 4.03138 11.4731 3.94215 11.5326 3.86834C11.5921 3.79453 11.6714 3.73917 11.7612 3.70872C13.585 3.08034 15.5258 2.86592 17.4427 3.08106C19.3597 3.29619 21.2047 3.93546 22.8438 4.95247C22.9031 4.98992 22.954 5.03946 22.993 5.09787C23.0319 5.15627 23.0582 5.22224 23.07 5.29146C23.0818 5.36068 23.0789 5.4316 23.0614 5.49962C23.044 5.56764 23.0124 5.63122 22.9688 5.68622C21.5214 7.53569 19.7465 9.1034 17.7325 10.3112C16.1056 8.02655 14.041 6.08779 11.6587 4.60747ZM15.9475 11.25C14.1219 8.75885 11.7201 6.74692 8.9475 5.38622C8.86811 5.34767 8.77981 5.33115 8.69185 5.33841C8.60389 5.34567 8.5195 5.37643 8.4475 5.42747C6.20298 7.03298 4.52513 9.30862 3.655 11.9275C3.63314 11.9944 3.62568 12.0653 3.6331 12.1353C3.64052 12.2054 3.66265 12.2731 3.69806 12.334C3.73347 12.3948 3.78134 12.4476 3.83854 12.4887C3.89575 12.5298 3.96099 12.5583 4.03 12.5725C5.3347 12.8537 6.66534 12.997 8 13C10.7449 13.0015 13.4571 12.4043 15.9475 11.25ZM28.9225 14.5862C28.6046 11.6869 27.3193 8.97917 25.2738 6.89997C25.2239 6.84931 25.1638 6.80986 25.0975 6.78427C25.0311 6.75867 24.9601 6.74751 24.8891 6.75153C24.8182 6.75555 24.7489 6.77466 24.6858 6.80759C24.6228 6.84052 24.5676 6.8865 24.5238 6.94247C22.9417 8.95795 21.0065 10.6691 18.8125 11.9925C19.4979 13.1799 20.0652 14.4318 20.5063 15.73C22.2971 15.2445 24.1445 14.999 26 15C26.7935 15 27.5865 15.0447 28.375 15.1337C28.4484 15.141 28.5225 15.132 28.592 15.1074C28.6615 15.0827 28.7246 15.0429 28.777 14.991C28.8293 14.939 28.8695 14.8761 28.8946 14.8068C28.9198 14.7374 28.9293 14.6634 28.9225 14.59V14.5862ZM21.0588 17.6487C21.4292 19.2248 21.6159 20.8385 21.615 22.4575C21.6142 24.0071 21.4419 25.552 21.1012 27.0637C21.0795 27.1563 21.0845 27.2532 21.1159 27.343C21.1472 27.4328 21.2036 27.5118 21.2782 27.5707C21.3529 27.6297 21.4428 27.6661 21.5375 27.6757C21.6321 27.6853 21.7275 27.6677 21.8125 27.625C23.7084 26.6739 25.3434 25.2745 26.5757 23.5481C27.808 21.8218 28.6003 19.8207 28.8838 17.7187C28.8923 17.6532 28.8878 17.5866 28.8705 17.5228C28.8531 17.459 28.8233 17.3993 28.7827 17.3471C28.7422 17.2949 28.6916 17.2512 28.6341 17.2187C28.5766 17.1862 28.5131 17.1653 28.4475 17.1575C25.9756 16.8393 23.4653 17.0092 21.0588 17.6575V17.6487ZM18.6038 16.3425C18.2007 15.1605 17.6819 14.0212 17.055 12.9412C14.2295 14.2986 11.1346 15.0023 8 15C6.53475 15.0001 5.07349 14.8471 3.64 14.5437C3.57084 14.5291 3.49937 14.5294 3.4303 14.5444C3.36124 14.5595 3.29615 14.589 3.23934 14.6311C3.18252 14.6731 3.13526 14.7267 3.10069 14.7884C3.06611 14.85 3.045 14.9183 3.03875 14.9887C3.01292 15.3221 2.99958 15.6591 2.99875 16C2.99809 17.78 3.364 19.5412 4.07369 21.1737C4.78337 22.8062 5.82162 24.275 7.12375 25.4887C7.17868 25.5391 7.24416 25.5765 7.31541 25.5983C7.38666 25.6201 7.46187 25.6256 7.53556 25.6146C7.60924 25.6036 7.67954 25.5762 7.74129 25.5346C7.80305 25.4929 7.85471 25.4379 7.8925 25.3737C10.3323 21.2339 14.1105 18.0496 18.6038 16.3462V16.3425ZM9.46125 26.6562C9.42839 26.7136 9.40724 26.7769 9.39901 26.8425C9.39078 26.9081 9.39564 26.9747 9.41331 27.0384C9.43098 27.1021 9.46111 27.1616 9.50195 27.2136C9.54279 27.2656 9.59354 27.309 9.65125 27.3412C12.2654 28.8069 15.3061 29.3232 18.2575 28.8025C18.3453 28.7872 18.4273 28.7482 18.4947 28.6899C18.5621 28.6315 18.6123 28.5559 18.64 28.4712C19.2847 26.533 19.6139 24.5038 19.615 22.4612C19.6153 21.054 19.4585 19.6512 19.1475 18.2787C15.0516 19.8746 11.6308 22.8332 9.46125 26.6562Z" fill="#29695D"/>
</svg>
