<svg width="312" height="446" viewBox="0 0 312 446" fill="none" xmlns="http://www.w3.org/2000/svg">
<path d="M52.2194 19C51.6727 17.84 51.1327 16.6333 50.5994 15.38C50.0661 14.1267 49.5594 12.8867 49.0794 11.66C48.5994 10.4333 48.1527 9.26 47.7394 8.14C47.3394 7.02 46.9927 6.02 46.6994 5.14H50.1394C50.4061 5.94 50.6927 6.80667 50.9994 7.74C51.3194 8.66 51.6394 9.58 51.9594 10.5C52.2927 11.42 52.6127 12.3 52.9194 13.14C53.2261 13.98 53.5127 14.7067 53.7794 15.32C54.0327 14.7067 54.3127 13.98 54.6194 13.14C54.9394 12.3 55.2594 11.42 55.5794 10.5C55.9127 9.58 56.2327 8.66 56.5394 7.74C56.8594 6.80667 57.1527 5.94 57.4194 5.14H60.7394C60.4327 6.02 60.0794 7.02 59.6794 8.14C59.2794 9.26 58.8394 10.4333 58.3594 11.66C57.8794 12.8867 57.3727 14.1267 56.8394 15.38C56.3061 16.6333 55.7661 17.84 55.2194 19H52.2194ZM66.013 19H63.033V8.48H66.013V19ZM66.293 5.44C66.293 5.98667 66.113 6.42 65.753 6.74C65.4063 7.04667 64.993 7.2 64.513 7.2C64.033 7.2 63.613 7.04667 63.253 6.74C62.9063 6.42 62.733 5.98667 62.733 5.44C62.733 4.89333 62.9063 4.46667 63.253 4.16C63.613 3.84 64.033 3.68 64.513 3.68C64.993 3.68 65.4063 3.84 65.753 4.16C66.113 4.46667 66.293 4.89333 66.293 5.44ZM75.8542 11.12C75.5876 11.0533 75.2742 10.9867 74.9142 10.92C74.5542 10.84 74.1676 10.8 73.7542 10.8C73.5676 10.8 73.3409 10.82 73.0742 10.86C72.8209 10.8867 72.6276 10.92 72.4942 10.96V19H69.5142V9.04C70.0476 8.85333 70.6742 8.68 71.3942 8.52C72.1276 8.34667 72.9409 8.26 73.8342 8.26C73.9942 8.26 74.1876 8.27333 74.4142 8.3C74.6409 8.31333 74.8676 8.34 75.0942 8.38C75.3209 8.40667 75.5476 8.44667 75.7742 8.5C76.0009 8.54 76.1942 8.59333 76.3542 8.66L75.8542 11.12ZM78.5517 5.86L81.5317 5.38V8.48H85.1117V10.96H81.5317V14.66C81.5317 15.2867 81.6384 15.7867 81.8517 16.16C82.0784 16.5333 82.5251 16.72 83.1917 16.72C83.5117 16.72 83.8384 16.6933 84.1717 16.64C84.5184 16.5733 84.8317 16.4867 85.1117 16.38L85.5317 18.7C85.1717 18.8467 84.7717 18.9733 84.3317 19.08C83.8917 19.1867 83.3517 19.24 82.7117 19.24C81.8984 19.24 81.2251 19.1333 80.6917 18.92C80.1584 18.6933 79.7317 18.3867 79.4117 18C79.0917 17.6 78.8651 17.12 78.7317 16.56C78.6117 16 78.5517 15.38 78.5517 14.7V5.86ZM97.2185 18.64C96.7118 18.7867 96.0585 18.92 95.2585 19.04C94.4585 19.1733 93.6185 19.24 92.7385 19.24C91.8451 19.24 91.0985 19.12 90.4985 18.88C89.9118 18.64 89.4451 18.3067 89.0985 17.88C88.7518 17.44 88.5051 16.92 88.3585 16.32C88.2118 15.72 88.1385 15.06 88.1385 14.34V8.48H91.1185V13.98C91.1185 14.94 91.2451 15.6333 91.4985 16.06C91.7518 16.4867 92.2251 16.7 92.9185 16.7C93.1318 16.7 93.3585 16.6933 93.5985 16.68C93.8385 16.6533 94.0518 16.6267 94.2385 16.6V8.48H97.2185V18.64ZM104.736 16.92C105.029 16.92 105.309 16.9133 105.576 16.9C105.842 16.8867 106.056 16.8667 106.216 16.84V14.58C106.096 14.5533 105.916 14.5267 105.676 14.5C105.436 14.4733 105.216 14.46 105.016 14.46C104.736 14.46 104.469 14.48 104.216 14.52C103.976 14.5467 103.762 14.6067 103.576 14.7C103.389 14.7933 103.242 14.92 103.136 15.08C103.029 15.24 102.976 15.44 102.976 15.68C102.976 16.1467 103.129 16.4733 103.436 16.66C103.756 16.8333 104.189 16.92 104.736 16.92ZM104.496 8.2C105.376 8.2 106.109 8.3 106.696 8.5C107.282 8.7 107.749 8.98667 108.096 9.36C108.456 9.73333 108.709 10.1867 108.856 10.72C109.002 11.2533 109.076 11.8467 109.076 12.5V18.7C108.649 18.7933 108.056 18.9 107.296 19.02C106.536 19.1533 105.616 19.22 104.536 19.22C103.856 19.22 103.236 19.16 102.676 19.04C102.129 18.92 101.656 18.7267 101.256 18.46C100.856 18.18 100.549 17.82 100.336 17.38C100.122 16.94 100.016 16.4 100.016 15.76C100.016 15.1467 100.136 14.6267 100.376 14.2C100.629 13.7733 100.962 13.4333 101.376 13.18C101.789 12.9267 102.262 12.7467 102.796 12.64C103.329 12.52 103.882 12.46 104.456 12.46C104.842 12.46 105.182 12.48 105.476 12.52C105.782 12.5467 106.029 12.5867 106.216 12.64V12.36C106.216 11.8533 106.062 11.4467 105.756 11.14C105.449 10.8333 104.916 10.68 104.156 10.68C103.649 10.68 103.149 10.72 102.656 10.8C102.162 10.8667 101.736 10.9667 101.376 11.1L100.996 8.7C101.169 8.64667 101.382 8.59333 101.636 8.54C101.902 8.47333 102.189 8.42 102.496 8.38C102.802 8.32667 103.122 8.28667 103.456 8.26C103.802 8.22 104.149 8.2 104.496 8.2ZM116.67 19.2C115.804 19.1867 115.097 19.0933 114.55 18.92C114.017 18.7467 113.59 18.5067 113.27 18.2C112.964 17.88 112.75 17.5 112.63 17.06C112.524 16.6067 112.47 16.1 112.47 15.54V3.96L115.45 3.48V14.94C115.45 15.2067 115.47 15.4467 115.51 15.66C115.55 15.8733 115.624 16.0533 115.73 16.2C115.85 16.3467 116.017 16.4667 116.23 16.56C116.444 16.6533 116.73 16.7133 117.09 16.74L116.67 19.2ZM129.823 19.18C129.063 19.18 128.303 19.1533 127.543 19.1C126.797 19.06 126.017 18.9533 125.203 18.78V5.34C125.843 5.22 126.543 5.13333 127.303 5.08C128.063 5.01333 128.77 4.98 129.423 4.98C130.303 4.98 131.11 5.04667 131.843 5.18C132.59 5.3 133.23 5.51333 133.763 5.82C134.297 6.12667 134.71 6.53333 135.003 7.04C135.31 7.53333 135.463 8.14667 135.463 8.88C135.463 9.98667 134.93 10.86 133.863 11.5C134.743 11.8333 135.343 12.2867 135.663 12.86C135.983 13.4333 136.143 14.08 136.143 14.8C136.143 16.2533 135.61 17.3467 134.543 18.08C133.49 18.8133 131.917 19.18 129.823 19.18ZM128.243 12.96V16.54C128.47 16.5667 128.717 16.5867 128.983 16.6C129.25 16.6133 129.543 16.62 129.863 16.62C130.797 16.62 131.55 16.4867 132.123 16.22C132.697 15.9533 132.983 15.46 132.983 14.74C132.983 14.1 132.743 13.6467 132.263 13.38C131.783 13.1 131.097 12.96 130.203 12.96H128.243ZM128.243 10.58H129.763C130.723 10.58 131.41 10.46 131.823 10.22C132.237 9.96667 132.443 9.56667 132.443 9.02C132.443 8.46 132.23 8.06667 131.803 7.84C131.377 7.61333 130.75 7.5 129.923 7.5C129.657 7.5 129.37 7.50667 129.063 7.52C128.757 7.52 128.483 7.53333 128.243 7.56V10.58ZM148.121 18.64C147.614 18.7867 146.961 18.92 146.161 19.04C145.361 19.1733 144.521 19.24 143.641 19.24C142.747 19.24 142.001 19.12 141.401 18.88C140.814 18.64 140.347 18.3067 140.001 17.88C139.654 17.44 139.407 16.92 139.261 16.32C139.114 15.72 139.041 15.06 139.041 14.34V8.48H142.021V13.98C142.021 14.94 142.147 15.6333 142.401 16.06C142.654 16.4867 143.127 16.7 143.821 16.7C144.034 16.7 144.261 16.6933 144.501 16.68C144.741 16.6533 144.954 16.6267 145.141 16.6V8.48H148.121V18.64ZM154.638 16.86C155.185 16.86 155.571 16.8067 155.798 16.7C156.025 16.5933 156.138 16.3867 156.138 16.08C156.138 15.84 155.991 15.6333 155.698 15.46C155.405 15.2733 154.958 15.0667 154.358 14.84C153.891 14.6667 153.465 14.4867 153.078 14.3C152.705 14.1133 152.385 13.8933 152.118 13.64C151.851 13.3733 151.645 13.06 151.498 12.7C151.351 12.34 151.278 11.9067 151.278 11.4C151.278 10.4133 151.645 9.63333 152.378 9.06C153.111 8.48667 154.118 8.2 155.398 8.2C156.038 8.2 156.651 8.26 157.238 8.38C157.825 8.48667 158.291 8.60667 158.638 8.74L158.118 11.06C157.771 10.94 157.391 10.8333 156.978 10.74C156.578 10.6467 156.125 10.6 155.618 10.6C154.685 10.6 154.218 10.86 154.218 11.38C154.218 11.5 154.238 11.6067 154.278 11.7C154.318 11.7933 154.398 11.8867 154.518 11.98C154.638 12.06 154.798 12.1533 154.998 12.26C155.211 12.3533 155.478 12.46 155.798 12.58C156.451 12.82 156.991 13.06 157.418 13.3C157.845 13.5267 158.178 13.78 158.418 14.06C158.671 14.3267 158.845 14.6267 158.938 14.96C159.045 15.2933 159.098 15.68 159.098 16.12C159.098 17.16 158.705 17.9467 157.918 18.48C157.145 19.0133 156.045 19.28 154.618 19.28C153.685 19.28 152.905 19.2 152.278 19.04C151.665 18.88 151.238 18.7467 150.998 18.64L151.498 16.22C152.005 16.42 152.525 16.58 153.058 16.7C153.591 16.8067 154.118 16.86 154.638 16.86ZM165.005 19H162.025V8.48H165.005V19ZM165.285 5.44C165.285 5.98667 165.105 6.42 164.745 6.74C164.399 7.04667 163.985 7.2 163.505 7.2C163.025 7.2 162.605 7.04667 162.245 6.74C161.899 6.42 161.725 5.98667 161.725 5.44C161.725 4.89333 161.899 4.46667 162.245 4.16C162.605 3.84 163.025 3.68 163.505 3.68C163.985 3.68 164.399 3.84 164.745 4.16C165.105 4.46667 165.285 4.89333 165.285 5.44ZM168.506 8.84C169.013 8.69333 169.666 8.56 170.466 8.44C171.266 8.30667 172.106 8.24 172.986 8.24C173.88 8.24 174.62 8.36 175.206 8.6C175.806 8.82667 176.28 9.15333 176.626 9.58C176.973 10.0067 177.22 10.5133 177.366 11.1C177.513 11.6867 177.586 12.34 177.586 13.06V19H174.606V13.42C174.606 12.46 174.48 11.78 174.226 11.38C173.973 10.98 173.5 10.78 172.806 10.78C172.593 10.78 172.366 10.7933 172.126 10.82C171.886 10.8333 171.673 10.8533 171.486 10.88V19H168.506V8.84ZM180.484 13.82C180.484 12.8867 180.624 12.0733 180.904 11.38C181.197 10.6733 181.577 10.0867 182.044 9.62C182.51 9.15333 183.044 8.8 183.644 8.56C184.257 8.32 184.884 8.2 185.524 8.2C187.017 8.2 188.197 8.66 189.064 9.58C189.93 10.4867 190.364 11.8267 190.364 13.6C190.364 13.7733 190.357 13.9667 190.344 14.18C190.33 14.38 190.317 14.56 190.304 14.72H183.544C183.61 15.3333 183.897 15.82 184.404 16.18C184.91 16.54 185.59 16.72 186.444 16.72C186.99 16.72 187.524 16.6733 188.044 16.58C188.577 16.4733 189.01 16.3467 189.344 16.2L189.744 18.62C189.584 18.7 189.37 18.78 189.104 18.86C188.837 18.94 188.537 19.0067 188.204 19.06C187.884 19.1267 187.537 19.18 187.164 19.22C186.79 19.26 186.417 19.28 186.044 19.28C185.097 19.28 184.27 19.14 183.564 18.86C182.87 18.58 182.29 18.2 181.824 17.72C181.37 17.2267 181.03 16.6467 180.804 15.98C180.59 15.3133 180.484 14.5933 180.484 13.82ZM187.484 12.68C187.47 12.4267 187.424 12.18 187.344 11.94C187.277 11.7 187.164 11.4867 187.004 11.3C186.857 11.1133 186.664 10.96 186.424 10.84C186.197 10.72 185.91 10.66 185.564 10.66C185.23 10.66 184.944 10.72 184.704 10.84C184.464 10.9467 184.264 11.0933 184.104 11.28C183.944 11.4667 183.817 11.6867 183.724 11.94C183.644 12.18 183.584 12.4267 183.544 12.68H187.484ZM196.383 16.86C196.93 16.86 197.317 16.8067 197.543 16.7C197.77 16.5933 197.883 16.3867 197.883 16.08C197.883 15.84 197.737 15.6333 197.443 15.46C197.15 15.2733 196.703 15.0667 196.103 14.84C195.637 14.6667 195.21 14.4867 194.823 14.3C194.45 14.1133 194.13 13.8933 193.863 13.64C193.597 13.3733 193.39 13.06 193.243 12.7C193.097 12.34 193.023 11.9067 193.023 11.4C193.023 10.4133 193.39 9.63333 194.123 9.06C194.857 8.48667 195.863 8.2 197.143 8.2C197.783 8.2 198.397 8.26 198.983 8.38C199.57 8.48667 200.037 8.60667 200.383 8.74L199.863 11.06C199.517 10.94 199.137 10.8333 198.723 10.74C198.323 10.6467 197.87 10.6 197.363 10.6C196.43 10.6 195.963 10.86 195.963 11.38C195.963 11.5 195.983 11.6067 196.023 11.7C196.063 11.7933 196.143 11.8867 196.263 11.98C196.383 12.06 196.543 12.1533 196.743 12.26C196.957 12.3533 197.223 12.46 197.543 12.58C198.197 12.82 198.737 13.06 199.163 13.3C199.59 13.5267 199.923 13.78 200.163 14.06C200.417 14.3267 200.59 14.6267 200.683 14.96C200.79 15.2933 200.843 15.68 200.843 16.12C200.843 17.16 200.45 17.9467 199.663 18.48C198.89 19.0133 197.79 19.28 196.363 19.28C195.43 19.28 194.65 19.2 194.023 19.04C193.41 18.88 192.983 18.7467 192.743 18.64L193.243 16.22C193.75 16.42 194.27 16.58 194.803 16.7C195.337 16.8067 195.863 16.86 196.383 16.86ZM206.79 16.86C207.337 16.86 207.724 16.8067 207.95 16.7C208.177 16.5933 208.29 16.3867 208.29 16.08C208.29 15.84 208.144 15.6333 207.85 15.46C207.557 15.2733 207.11 15.0667 206.51 14.84C206.044 14.6667 205.617 14.4867 205.23 14.3C204.857 14.1133 204.537 13.8933 204.27 13.64C204.004 13.3733 203.797 13.06 203.65 12.7C203.504 12.34 203.43 11.9067 203.43 11.4C203.43 10.4133 203.797 9.63333 204.53 9.06C205.264 8.48667 206.27 8.2 207.55 8.2C208.19 8.2 208.804 8.26 209.39 8.38C209.977 8.48667 210.444 8.60667 210.79 8.74L210.27 11.06C209.924 10.94 209.544 10.8333 209.13 10.74C208.73 10.6467 208.277 10.6 207.77 10.6C206.837 10.6 206.37 10.86 206.37 11.38C206.37 11.5 206.39 11.6067 206.43 11.7C206.47 11.7933 206.55 11.8867 206.67 11.98C206.79 12.06 206.95 12.1533 207.15 12.26C207.364 12.3533 207.63 12.46 207.95 12.58C208.604 12.82 209.144 13.06 209.57 13.3C209.997 13.5267 210.33 13.78 210.57 14.06C210.824 14.3267 210.997 14.6267 211.09 14.96C211.197 15.2933 211.25 15.68 211.25 16.12C211.25 17.16 210.857 17.9467 210.07 18.48C209.297 19.0133 208.197 19.28 206.77 19.28C205.837 19.28 205.057 19.2 204.43 19.04C203.817 18.88 203.39 18.7467 203.15 18.64L203.65 16.22C204.157 16.42 204.677 16.58 205.21 16.7C205.744 16.8067 206.27 16.86 206.79 16.86ZM226.202 19.28C223.949 19.28 222.229 18.6533 221.042 17.4C219.869 16.1467 219.282 14.3667 219.282 12.06C219.282 10.9133 219.462 9.89333 219.822 9C220.182 8.09333 220.676 7.33333 221.302 6.72C221.929 6.09333 222.676 5.62 223.542 5.3C224.409 4.98 225.349 4.82 226.362 4.82C226.949 4.82 227.482 4.86667 227.962 4.96C228.442 5.04 228.862 5.14 229.222 5.26C229.582 5.36667 229.882 5.48 230.122 5.6C230.362 5.72 230.536 5.81333 230.642 5.88L229.742 8.4C229.316 8.17333 228.816 7.98 228.242 7.82C227.682 7.66 227.042 7.58 226.322 7.58C225.842 7.58 225.369 7.66 224.902 7.82C224.449 7.98 224.042 8.24 223.682 8.6C223.336 8.94667 223.056 9.4 222.842 9.96C222.629 10.52 222.522 11.2 222.522 12C222.522 12.64 222.589 13.24 222.722 13.8C222.869 14.3467 223.096 14.82 223.402 15.22C223.722 15.62 224.136 15.94 224.642 16.18C225.149 16.4067 225.762 16.52 226.482 16.52C226.936 16.52 227.342 16.4933 227.702 16.44C228.062 16.3867 228.382 16.3267 228.662 16.26C228.942 16.18 229.189 16.0933 229.402 16C229.616 15.9067 229.809 15.82 229.982 15.74L230.842 18.24C230.402 18.5067 229.782 18.7467 228.982 18.96C228.182 19.1733 227.256 19.28 226.202 19.28ZM237.566 16.92C237.86 16.92 238.14 16.9133 238.406 16.9C238.673 16.8867 238.886 16.8667 239.046 16.84V14.58C238.926 14.5533 238.746 14.5267 238.506 14.5C238.266 14.4733 238.046 14.46 237.846 14.46C237.566 14.46 237.3 14.48 237.046 14.52C236.806 14.5467 236.593 14.6067 236.406 14.7C236.22 14.7933 236.073 14.92 235.966 15.08C235.86 15.24 235.806 15.44 235.806 15.68C235.806 16.1467 235.96 16.4733 236.266 16.66C236.586 16.8333 237.02 16.92 237.566 16.92ZM237.326 8.2C238.206 8.2 238.94 8.3 239.526 8.5C240.113 8.7 240.58 8.98667 240.926 9.36C241.286 9.73333 241.54 10.1867 241.686 10.72C241.833 11.2533 241.906 11.8467 241.906 12.5V18.7C241.48 18.7933 240.886 18.9 240.126 19.02C239.366 19.1533 238.446 19.22 237.366 19.22C236.686 19.22 236.066 19.16 235.506 19.04C234.96 18.92 234.486 18.7267 234.086 18.46C233.686 18.18 233.38 17.82 233.166 17.38C232.953 16.94 232.846 16.4 232.846 15.76C232.846 15.1467 232.966 14.6267 233.206 14.2C233.46 13.7733 233.793 13.4333 234.206 13.18C234.62 12.9267 235.093 12.7467 235.626 12.64C236.16 12.52 236.713 12.46 237.286 12.46C237.673 12.46 238.013 12.48 238.306 12.52C238.613 12.5467 238.86 12.5867 239.046 12.64V12.36C239.046 11.8533 238.893 11.4467 238.586 11.14C238.28 10.8333 237.746 10.68 236.986 10.68C236.48 10.68 235.98 10.72 235.486 10.8C234.993 10.8667 234.566 10.9667 234.206 11.1L233.826 8.7C234 8.64667 234.213 8.59333 234.466 8.54C234.733 8.47333 235.02 8.42 235.326 8.38C235.633 8.32667 235.953 8.28667 236.286 8.26C236.633 8.22 236.98 8.2 237.326 8.2ZM251.641 11.12C251.374 11.0533 251.061 10.9867 250.701 10.92C250.341 10.84 249.954 10.8 249.541 10.8C249.354 10.8 249.128 10.82 248.861 10.86C248.608 10.8867 248.414 10.92 248.281 10.96V19H245.301V9.04C245.834 8.85333 246.461 8.68 247.181 8.52C247.914 8.34667 248.728 8.26 249.621 8.26C249.781 8.26 249.974 8.27333 250.201 8.3C250.428 8.31333 250.654 8.34 250.881 8.38C251.108 8.40667 251.334 8.44667 251.561 8.5C251.788 8.54 251.981 8.59333 252.141 8.66L251.641 11.12ZM256.783 13.66C256.783 14.58 256.99 15.32 257.403 15.88C257.816 16.44 258.43 16.72 259.243 16.72C259.51 16.72 259.756 16.7133 259.983 16.7C260.21 16.6733 260.396 16.6467 260.543 16.62V11.2C260.356 11.08 260.11 10.98 259.803 10.9C259.51 10.82 259.21 10.78 258.903 10.78C257.49 10.78 256.783 11.74 256.783 13.66ZM263.523 18.66C263.256 18.74 262.95 18.82 262.603 18.9C262.256 18.9667 261.89 19.0267 261.503 19.08C261.13 19.1333 260.743 19.1733 260.343 19.2C259.956 19.24 259.583 19.26 259.223 19.26C258.356 19.26 257.583 19.1333 256.903 18.88C256.223 18.6267 255.65 18.2667 255.183 17.8C254.716 17.32 254.356 16.7467 254.103 16.08C253.863 15.4 253.743 14.64 253.743 13.8C253.743 12.9467 253.85 12.18 254.063 11.5C254.276 10.8067 254.583 10.22 254.983 9.74C255.383 9.26 255.87 8.89333 256.443 8.64C257.03 8.38667 257.696 8.26 258.443 8.26C258.856 8.26 259.223 8.3 259.543 8.38C259.876 8.46 260.21 8.57333 260.543 8.72V3.96L263.523 3.48V18.66Z" fill="white"/>
<rect y="65" width="311.999" height="380.999" rx="18" fill="#F5F5F5"/>
<path d="M111.599 96C112.365 96.3267 113.161 96.5947 113.887 96.9907C115.982 98.1333 116.291 100.112 116.29 102.244C116.284 115.286 116.294 128.329 116.298 141.372C116.3 151.066 116.216 160.762 116.356 170.454C116.402 173.622 113.763 176.37 110.47 176.356C88.0328 176.266 65.5957 176.279 43.1586 176.302C39.5426 176.307 37.4507 176.143 36 171.599C36 170.099 36 168.599 36 167.099C36.056 166.459 36.1587 165.821 36.1587 165.181C36.176 153.558 36.1867 141.937 36.18 130.314C36.18 129.176 36.0627 128.038 36 126.9C36 118 36 109.1 36 100.2C36.732 98.132 38.1986 96.7987 40.2 96C63.9997 96 87.7994 96 111.599 96ZM104.55 136.044C104.566 136.044 104.583 136.044 104.599 136.044C104.599 127.646 104.607 119.249 104.594 110.852C104.59 108.192 103.966 107.551 101.346 107.548C84.4515 107.531 67.557 107.527 50.6612 107.527C48.5705 107.527 47.5239 108.561 47.5239 110.647C47.5225 127.441 47.5252 144.235 47.5492 161.03C47.5532 164.074 48.0225 164.529 50.9985 164.533C67.693 164.555 84.3875 164.573 101.083 164.578C104.334 164.578 104.547 164.343 104.549 161.087C104.553 152.739 104.55 144.393 104.55 136.045V136.044Z" fill="black"/>
<path d="M275.997 173.099C274.407 175.77 272.004 176.312 269.029 176.302C247.235 176.219 225.439 176.278 203.643 176.291C203.043 176.291 202.439 176.242 201.845 176.3C198.463 176.628 195.942 173.744 195.976 170.47C196.073 160.973 196.009 151.474 196.01 141.977C196.01 128.929 196.081 115.881 195.969 102.836C195.94 99.404 196.986 97.0267 200.399 96H271.199C273.368 96.4413 275.179 97.36 275.999 99.6V173.099H275.997ZM207.597 136.052C207.597 144.198 207.597 152.346 207.597 160.493C207.597 164.411 207.757 164.585 211.729 164.587C228.123 164.599 244.518 164.602 260.911 164.601C261.507 164.601 262.101 164.489 262.699 164.477C264.016 164.449 264.536 163.649 264.667 162.479C264.727 161.935 264.749 161.383 264.751 160.835C264.761 144.141 264.767 127.448 264.771 110.753C264.771 108.604 263.823 107.567 261.716 107.563C244.672 107.537 227.629 107.527 210.585 107.533C208.466 107.533 207.601 108.469 207.601 110.561C207.598 119.058 207.601 127.556 207.599 136.052H207.597Z" fill="black"/>
<path d="M36 260.098C36.2333 259.624 36.4413 259.134 36.7027 258.676C37.7746 256.8 39.456 256.02 41.5573 256.018C64.541 256.008 87.5248 256.018 110.509 255.964C113.772 255.956 116.355 258.458 116.343 261.724C116.266 284.107 116.25 306.491 116.316 328.876C116.326 331.864 115.97 334.433 113.098 335.999H39.3C37.4813 335.024 36.468 333.46 36 331.497V318.298C36 317.098 36 315.898 36 314.698C36.0573 313.958 36.1627 313.219 36.164 312.479C36.176 304.658 36.176 296.837 36.164 289.015C36.1627 288.177 36.0587 287.338 36.0013 286.498C36.0013 277.698 36.0013 268.898 36.0013 260.098H36ZM76.2716 267.596C67.925 267.596 59.5771 267.596 51.2305 267.596C48.1545 267.596 47.5212 268.162 47.5212 271.249C47.5239 287.842 47.6025 304.435 47.5225 321.027C47.5105 323.484 48.5972 324.831 51.4172 324.818C67.861 324.74 84.3061 324.779 100.75 324.778C104.059 324.778 104.577 324.264 104.578 320.995C104.582 304.6 104.586 288.206 104.583 271.811C104.583 271.163 104.562 270.511 104.485 269.87C104.254 267.953 103.845 267.602 101.913 267.602C93.366 267.601 84.8181 267.602 76.2716 267.597V267.596Z" fill="black"/>
<path d="M275.997 287.398C275.312 288.133 274.735 289.042 273.911 289.553C273.109 290.05 272.059 290.351 271.111 290.37C266.864 290.454 262.611 290.317 258.366 290.438C255.834 290.51 252.819 288.078 253.178 285.137C253.316 284.003 253.11 282.831 253.222 281.693C253.37 280.197 252.7 279.442 251.312 279.213C250.726 279.115 250.124 279.07 249.53 279.07C237.383 279.047 225.237 278.989 213.091 279.069C211.135 279.082 209.706 278.346 208.489 277.071C207.991 276.55 207.782 275.674 207.634 274.922C207.493 274.199 207.602 273.429 207.603 272.678C207.607 269.499 209.477 267.607 212.61 267.607C221.358 267.607 230.106 267.585 238.852 267.63C240.672 267.639 241.475 267.183 241.735 264.998C241.98 262.927 241.854 260.804 241.77 258.708C241.702 256.998 240.964 256.224 239.283 256.173C236.038 256.074 232.789 256.086 229.542 256.084C224.094 256.08 218.645 256.105 213.197 256.105C210.985 256.105 209.125 255.518 207.945 253.384C205.8 249.5 208.365 244.749 212.747 244.738C224.493 244.708 236.238 244.714 247.984 244.734C251.502 244.74 253.195 246.481 253.195 249.962C253.195 251.162 253.198 252.362 253.195 253.561C253.192 254.82 253.723 255.713 255.03 255.852C256.415 255.998 257.824 256.13 259.207 256.037C262.464 255.82 264.947 258.686 264.872 261.75C264.759 266.395 264.848 271.046 264.859 275.695C264.866 278.425 265.458 278.975 268.192 279.035C269.725 279.069 271.259 279.195 272.787 279.342C274.161 279.474 274.948 280.367 275.467 281.575C275.545 281.759 275.813 281.862 275.993 282.002V287.402L275.997 287.398Z" fill="black"/>
<path d="M164.699 335.997C164.628 335.871 164.589 335.677 164.481 335.625C161.009 333.945 162.059 330.767 162.057 328.019C162.057 326.53 164.115 325.012 165.955 324.894C167.397 324.8 168.849 324.851 170.297 324.819C172.155 324.776 173.281 323.691 173.321 321.835C173.361 319.988 173.359 318.139 173.321 316.291C173.279 314.17 172.268 313.206 170.168 313.199C168.969 313.195 167.771 313.199 166.572 313.194C163.943 313.18 162.007 311.272 162.001 308.69C162 307.991 162.001 307.291 162.004 306.592C162.012 303.68 163.891 301.808 166.856 301.8C171.101 301.788 175.349 301.871 179.592 301.778C182.336 301.716 184.649 303.883 184.745 306.843C184.785 308.091 184.732 309.342 184.78 310.588C184.849 312.398 185.692 313.2 187.446 313.206C188.696 313.21 189.944 313.204 191.193 313.208C193.65 313.215 195.596 314.671 195.85 317.094C196.028 318.782 196.076 320.668 195.489 322.202C194.846 323.88 193.118 324.783 191.185 324.843C189.937 324.882 188.688 324.822 187.44 324.855C185.522 324.904 184.833 325.587 184.768 327.479C184.73 328.576 184.744 329.676 184.738 330.775C184.729 332.776 184.07 334.424 182.241 335.464C182.053 335.571 181.944 335.817 181.797 335.999H164.697L164.699 335.997Z" fill="black"/>
<path d="M180.298 96C184.278 97.288 184.808 99.2693 184.756 102.832C184.704 106.427 184.876 110.031 184.677 113.616C184.6 115.013 184.056 116.566 183.241 117.704C181.812 119.7 175.619 119.265 174.317 117.165C173.795 116.321 173.439 115.229 173.419 114.241C173.329 109.748 173.312 105.251 173.431 100.759C173.473 99.1546 173.813 97.4867 175.749 96.8533C176.299 96.6733 176.783 96.2907 177.296 96C178.296 96 179.296 96 180.296 96H180.298Z" fill="black"/>
<path d="M36 211.799C36.9827 210.365 38.384 210.165 40 210.28C41.6893 210.399 43.3933 210.295 45.0906 210.309C46.6506 210.323 47.3745 210.863 47.4372 212.387C47.5412 214.877 47.5492 217.379 47.4599 219.871C47.4025 221.485 46.7146 221.993 45.0359 222.001C43.2386 222.009 41.4306 221.883 39.6466 222.032C37.976 222.171 36.752 221.737 36 220.199V211.799Z" fill="black"/>
<path d="M254.098 335.997C253.292 335.032 253.127 333.923 253.182 332.688C253.264 330.798 253.279 328.896 253.184 327.007C253.112 325.584 253.807 324.92 255.063 324.884C257.652 324.81 260.247 324.816 262.836 324.88C264.195 324.914 264.866 325.744 264.86 327.115C264.851 329.358 264.948 331.608 264.8 333.841C264.751 334.581 264.084 335.28 263.699 335.997H254.099H254.098Z" fill="black"/>
<path d="M197.098 335.997C196.206 335.081 195.928 333.991 195.981 332.719C196.06 330.875 195.974 329.023 196.009 327.176C196.041 325.511 196.582 324.903 198.254 324.855C200.649 324.785 203.05 324.787 205.445 324.856C207.233 324.908 207.591 325.359 207.597 327.144C207.602 329.092 207.55 331.041 207.617 332.987C207.656 334.124 207.529 335.152 206.7 335.997H197.1H197.098Z" fill="black"/>
<path d="M36 188.699C37.272 187.49 38.8426 187.475 40.4586 187.528C42.0546 187.58 43.6559 187.504 45.2519 187.55C46.6972 187.59 47.4492 188.331 47.4732 189.755C47.5119 192.102 47.5159 194.45 47.4799 196.795C47.4559 198.338 46.8279 198.91 45.2519 198.923C43.2546 198.939 41.2493 198.818 39.2613 198.962C37.788 199.068 36.768 198.588 36 197.399V188.699Z" fill="black"/>
<path d="M275.998 209.699C274.944 209.9 273.896 210.227 272.835 210.277C270.89 210.371 268.938 210.319 266.988 210.293C265.307 210.271 264.871 209.863 264.838 208.158C264.795 205.91 264.798 203.659 264.844 201.41C264.883 199.495 265.491 198.936 267.391 198.927C269.191 198.918 270.994 198.998 272.788 198.9C274.079 198.831 275.135 199.142 275.998 200.099V209.699Z" fill="black"/>
<path d="M128.399 335.997C126.798 332.947 127.76 329.672 127.634 326.5C127.594 325.503 128.367 324.815 129.546 324.83C132.042 324.859 134.538 324.818 137.034 324.852C138.288 324.87 138.931 325.538 138.919 326.838C138.898 329.184 138.983 331.533 138.871 333.875C138.836 334.595 138.304 335.291 137.999 335.997H128.399Z" fill="black"/>
<path d="M275.997 255.298C274.861 255.56 273.735 255.969 272.587 256.046C270.754 256.17 268.904 256.098 267.063 256.06C265.439 256.026 264.864 255.496 264.835 253.917C264.791 251.578 264.79 249.236 264.848 246.897C264.89 245.281 265.45 244.76 267.048 244.737C269.288 244.706 271.534 244.649 273.767 244.774C274.526 244.817 275.253 245.376 275.996 245.698V255.298H275.997Z" fill="black"/>
<path d="M160.92 290.414C154.721 290.414 148.521 290.411 142.323 290.415C139.962 290.417 139.007 291.323 138.974 293.626C138.948 295.375 138.931 297.126 138.98 298.874C139.038 300.912 139.93 301.759 141.954 301.794C142.903 301.81 143.865 301.898 144.8 301.778C146.745 301.528 148.28 302.394 149.437 303.71C150.04 304.395 150.244 305.611 150.263 306.595C150.347 310.992 150.313 315.392 150.295 319.792C150.283 322.779 148.183 324.696 145.137 324.875C141.199 325.107 139.064 322.566 138.919 319.744C138.855 318.498 138.936 317.244 138.899 315.996C138.843 314.09 137.915 313.21 136.006 313.199C134.956 313.194 133.906 313.198 132.856 313.196C129.359 313.19 127.58 311.408 127.556 307.848C127.531 304.099 127.522 300.35 127.523 296.601C127.524 288.702 127.538 280.803 127.546 272.905C127.55 269.493 129.396 267.61 132.747 267.605C133.896 267.604 135.047 267.608 136.196 267.598C137.822 267.584 138.816 266.734 138.878 265.086C138.959 262.89 138.951 260.686 138.88 258.489C138.836 257.106 137.902 256.244 136.466 256.158C135.171 256.081 133.864 256.177 132.571 256.084C129.164 255.838 127.959 254.654 127.566 250.898C127.452 249.81 127.547 248.701 127.53 247.601C127.5 245.728 126.571 244.786 124.674 244.784C112.275 244.766 99.878 244.776 87.4794 244.733C86.5634 244.73 85.6221 244.469 84.7381 244.186C82.5595 243.49 81.9262 241.701 81.9168 239.677C81.8755 231.679 81.9795 223.679 81.8595 215.681C81.8128 212.56 84.1901 210.179 87.2728 210.275C91.4461 210.404 93.27 212.115 93.274 216.295C93.274 217.244 93.242 218.196 93.2927 219.144C93.3874 220.924 94.4954 221.972 96.274 221.997C97.4233 222.013 98.5887 222.116 99.7206 221.973C102.757 221.589 104.666 224.019 104.654 226.78C104.649 227.98 104.642 229.18 104.665 230.379C104.699 232.201 105.686 233.296 107.53 233.311C113.328 233.356 119.128 233.349 124.927 233.316C126.53 233.307 127.523 232.096 127.527 230.301C127.539 225.403 127.519 220.503 127.551 215.604C127.568 212.903 129.407 210.64 131.751 210.324C135.386 209.835 137.843 211.027 138.682 213.771C138.895 214.467 138.919 215.239 138.926 215.977C138.967 220.625 138.97 225.273 139.004 229.921C139.023 232.371 140.035 233.356 142.47 233.361C143.519 233.364 144.571 233.328 145.619 233.376C148.612 233.516 150.331 235.207 150.316 238.141C150.273 246.689 150.305 255.238 150.311 263.786C150.312 266.834 151.068 267.596 154.092 267.601C154.941 267.602 155.792 267.601 156.641 267.602C159.951 267.605 161.989 269.647 162.001 272.975C162.005 274.075 162.001 275.175 162.001 276.275C162.004 278.257 162.685 278.979 164.681 278.99C169.48 279.017 174.284 279.147 179.077 278.981C184.518 278.791 185.54 283.723 184.394 287.111C183.634 289.359 181.934 290.398 179.518 290.401C173.32 290.405 167.12 290.402 160.921 290.402V290.41L160.92 290.414Z" fill="black"/>
<path d="M127.544 153.325C127.544 143.728 127.542 134.13 127.546 124.534C127.546 122.094 128.346 120.058 130.816 119.2C133.15 118.389 135.555 118.434 137.379 120.266C138.202 121.092 138.794 122.51 138.838 123.685C139.02 128.526 138.947 133.377 138.979 138.225C138.998 141.006 139.886 141.89 142.651 141.894C147.349 141.901 152.049 141.977 156.745 141.87C159.647 141.805 162.275 144.366 162.015 147.125C161.912 148.216 161.999 149.322 161.999 150.422C161.999 152.393 162.731 153.181 164.721 153.257C165.919 153.302 167.12 153.253 168.32 153.27C170.847 153.305 173.007 155.009 173.315 157.502C173.509 159.086 173.603 160.693 172.651 162.263C171.505 164.151 169.907 164.67 167.911 164.646C166.712 164.631 165.508 164.594 164.313 164.677C162.704 164.787 162.004 165.585 162.003 167.175C161.997 173.123 161.997 179.071 162.003 185.02C162.003 186.66 162.752 187.434 164.449 187.532C166.133 187.631 167.849 187.53 169.5 187.815C172.765 188.379 173.876 191.348 173.32 194.811C172.971 196.984 171.435 198.975 168.075 198.943C163.876 198.903 159.677 198.939 155.479 198.923C152.353 198.911 150.317 196.875 150.303 193.776C150.299 192.827 150.304 191.876 150.301 190.927C150.292 188.371 149.669 187.714 147.172 187.687C143.775 187.65 140.376 187.63 136.979 187.608C135.63 187.6 134.278 187.562 132.931 187.616C129.679 187.748 127.528 185.504 127.536 182.118C127.558 172.521 127.544 162.923 127.547 153.327L127.544 153.325ZM144.708 164.682V164.673C143.76 164.673 142.812 164.665 141.866 164.674C140.158 164.691 139.058 165.666 138.992 167.398C138.916 169.39 138.92 171.389 138.992 173.381C139.055 175.117 140.092 176.157 141.807 176.194C143.899 176.241 145.995 176.183 148.088 176.129C149.196 176.099 150.045 175.651 150.081 174.39C150.155 171.861 150.285 169.326 150.203 166.801C150.152 165.265 149.089 164.599 147.553 164.673C146.608 164.718 145.659 164.681 144.711 164.681L144.708 164.682Z" fill="black"/>
<path d="M224.839 187.546C232.483 187.546 240.127 187.524 247.77 187.559C249.902 187.568 251.843 188.131 252.832 190.291C253.07 190.81 253.178 191.431 253.182 192.006C253.21 196.502 253.007 201.01 253.27 205.49C253.424 208.123 250.922 210.377 248.414 210.336C242.67 210.241 236.925 210.32 231.179 210.32C224.985 210.32 218.79 210.292 212.595 210.319C210.579 210.328 209.002 209.644 208.057 207.811C207.82 207.351 207.646 206.807 207.625 206.295C207.566 204.848 207.605 203.398 207.6 201.95C207.592 200.08 206.59 199.019 204.692 198.936C203.594 198.888 202.494 198.932 201.394 198.928C197.852 198.914 195.99 196.902 195.982 193.083C195.974 189.712 198.094 187.547 201.458 187.542C209.252 187.53 217.045 187.538 224.838 187.538V187.546H224.839Z" fill="black"/>
<path d="M173.372 217.031C173.372 212.783 173.471 208.532 173.341 204.288C173.233 200.741 175.715 198.868 178.797 198.908C182.545 198.958 186.296 198.971 190.042 198.903C194.937 198.814 196.541 201.512 196.058 205.933C195.721 209.025 194.221 210.271 191.098 210.301C189.898 210.312 188.698 210.291 187.5 210.316C185.969 210.349 184.837 211.381 184.797 212.909C184.741 215.057 184.752 217.208 184.81 219.356C184.853 220.927 185.896 221.933 187.485 221.988C188.933 222.039 190.384 221.997 191.833 222.004C193.696 222.013 195.106 223.107 195.704 224.867C196.412 226.953 196.377 229.129 195.456 230.981C194.757 232.385 193.161 233.297 191.385 233.362C190.286 233.402 189.184 233.422 188.086 233.369C185.47 233.245 184.674 234.402 184.706 236.72C184.732 238.476 184.525 240.29 184.069 241.984C183.536 243.964 181.696 244.649 179.901 244.705C175.557 244.841 171.204 244.82 166.859 244.702C164.196 244.63 161.515 242.877 161.983 239.6C162.129 238.57 161.889 237.48 162.081 236.464C162.377 234.893 164.276 233.508 166.1 233.405C167.396 233.332 168.697 233.368 169.997 233.36C172.172 233.345 173.317 232.224 173.321 230.072C173.328 225.724 173.324 221.375 173.324 217.027C173.34 217.027 173.356 217.027 173.372 217.027V217.031Z" fill="black"/>
<path d="M87.7288 187.539C95.2768 187.539 102.826 187.536 110.374 187.539C115.321 187.542 117.989 192.03 115.631 196.398C114.622 198.268 112.962 198.938 110.909 198.936C102.462 198.935 94.0141 198.96 85.5675 198.978C82.6729 198.983 81.8982 199.746 81.8902 202.595C81.8876 203.644 81.9062 204.695 81.8876 205.744C81.8516 207.771 80.3796 209.737 78.3996 210.071C76.9956 210.307 75.5063 210.388 74.101 210.197C71.8397 209.889 70.573 208.197 70.509 205.787C70.4744 204.488 70.5184 203.187 70.497 201.888C70.469 200.123 69.3931 199.008 67.6091 198.942C66.3611 198.895 65.1091 198.95 63.8598 198.926C60.8865 198.871 58.9652 196.768 58.7905 193.791C58.5238 189.266 61.5251 187.439 65.0851 187.5C72.6317 187.628 80.1809 187.539 87.7288 187.539Z" fill="black"/>
<path d="M230.397 301.792C224.498 301.792 218.599 301.794 212.701 301.792C210.521 301.792 208.879 300.919 207.87 298.91C205.854 294.895 208.522 290.417 212.973 290.414C224.621 290.407 236.267 290.41 247.915 290.41C250.122 290.41 252.127 291.143 252.855 293.271C253.531 295.247 253.695 297.474 252.627 299.478C251.571 301.459 249.688 301.813 247.644 301.806C241.895 301.789 236.147 301.799 230.398 301.799V301.794L230.397 301.792Z" fill="black"/>
<path d="M161.824 130.501C159.676 130.501 157.519 130.369 155.384 130.536C152.897 130.73 150.22 127.753 150.272 125.517C150.372 121.174 150.252 116.826 150.317 112.482C150.367 109.121 153.339 106.913 157.472 107.513C159.883 107.864 162.279 110.276 162.021 112.902C161.891 114.238 161.976 115.597 162.003 116.945C162.027 118.132 162.635 118.793 163.857 118.805C165.005 118.816 166.16 118.888 167.303 118.805C172.512 118.434 174.557 123.404 172.928 127.421C172.184 129.253 170.652 130.532 168.417 130.509C166.22 130.488 164.023 130.505 161.825 130.505V130.501H161.824Z" fill="black"/>
<path d="M70.5009 233.381C70.5009 235.177 70.3782 236.983 70.5249 238.767C70.9422 243.853 66.6422 245.376 63.0356 244.617C60.3036 244.042 58.821 242.121 58.8183 239.324C58.8157 235.233 58.8103 231.143 58.8223 227.052C58.8317 224.019 60.7796 222.035 63.7596 221.995C64.3583 221.987 64.9569 221.984 65.5556 221.989C68.6702 222.016 70.4995 223.911 70.4955 227.096C70.4929 229.191 70.4955 231.287 70.4955 233.381H70.5022H70.5009Z" fill="black"/>
<path d="M241.951 313.207C244.197 313.207 246.442 313.188 248.686 313.212C251.03 313.238 253.192 315.447 253.196 317.774C253.196 318.422 253.196 319.071 253.196 319.719C253.196 322.663 251.199 324.787 248.236 324.826C243.947 324.883 239.655 324.871 235.365 324.831C233.055 324.81 231.273 323.323 230.611 321.022C229.67 317.743 230.922 314.588 233.634 313.506C234.122 313.311 234.685 313.228 235.215 313.22C237.459 313.19 239.705 313.207 241.95 313.207H241.951Z" fill="black"/>
<path d="M173.236 267.597C171.039 267.597 168.841 267.605 166.644 267.594C164.015 267.582 162.003 265.553 162.001 262.93C162.001 262.281 162.001 261.632 162.001 260.982C162.007 258.165 163.632 256.193 166.459 256.101C170.997 255.954 175.553 255.889 180.085 256.116C184.109 256.317 186.292 261.562 184.062 265.108C182.953 266.87 181.494 267.726 179.377 267.619C177.335 267.517 175.283 267.597 173.236 267.595V267.597Z" fill="black"/>
<path d="M241.878 222.005C244.224 222.005 246.572 221.997 248.919 222.008C251.222 222.019 253.192 224.017 253.196 226.327C253.196 227.025 253.196 227.725 253.196 228.424C253.196 231.184 251.179 233.325 248.38 233.36C243.986 233.416 239.59 233.428 235.196 233.343C233.207 233.304 231.642 232.311 230.897 230.393C229.914 227.869 230.074 225.367 231.801 223.236C232.342 222.568 233.489 222.12 234.389 222.063C236.875 221.905 239.379 222.008 241.876 222.005H241.878Z" fill="black"/>
<path d="M173.377 141.749C173.377 139.704 173.389 137.657 173.375 135.612C173.349 132.108 175.293 130.361 178.48 130.5C179.227 130.532 179.979 130.488 180.723 130.553C183.501 130.794 184.677 133.282 184.723 135.442C184.813 139.781 184.792 144.125 184.727 148.465C184.687 151.097 182.407 153.295 179.764 153.249C178.503 153.226 177.229 152.947 175.992 152.654C173.888 152.157 173.509 150.388 173.415 148.634C173.291 146.346 173.384 144.045 173.384 141.75H173.377V141.749Z" fill="black"/>
<path d="M207.597 216.287C207.597 217.484 207.597 218.68 207.597 219.877C207.597 221.231 206.806 221.925 205.565 221.963C203.123 222.037 200.678 222.015 198.234 221.976C196.834 221.953 196.124 221.012 196.066 219.76C195.958 217.371 195.948 214.972 196.048 212.583C196.113 211.032 197.032 210.327 198.636 210.316C200.83 210.3 203.025 210.292 205.218 210.316C206.825 210.335 207.578 211.109 207.595 212.695C207.607 213.892 207.598 215.088 207.597 216.285V216.287Z" fill="black"/>
<path d="M110.474 221.991C109.326 221.991 108.178 222.015 107.03 221.985C105.554 221.947 104.671 221.169 104.625 219.701C104.549 217.359 104.543 215.009 104.597 212.665C104.63 211.171 105.477 210.351 106.947 210.323C109.242 210.279 111.539 210.3 113.834 210.319C115.156 210.329 116.127 210.956 116.188 212.313C116.304 214.851 116.344 217.4 116.232 219.936C116.176 221.212 115.298 221.991 113.918 221.991C112.77 221.991 111.622 221.991 110.474 221.991Z" fill="black"/>
<path d="M259.03 210.311C260.079 210.311 261.128 210.291 262.176 210.315C263.883 210.353 264.768 211.18 264.808 212.889C264.86 215.085 264.868 217.285 264.812 219.481C264.771 221.119 263.894 221.957 262.271 221.983C260.024 222.016 257.775 222.02 255.528 221.977C254.036 221.949 253.223 221.111 253.21 219.64C253.187 217.293 253.184 214.945 253.212 212.597C253.228 211.199 254.028 210.379 255.434 210.321C256.631 210.273 257.831 210.311 259.03 210.309V210.311Z" fill="black"/>
<path d="M156.221 222.001C157.469 222.001 158.72 222.049 159.965 221.988C161.317 221.921 161.935 222.676 161.971 223.851C162.048 226.295 162.036 228.744 161.977 231.188C161.947 232.469 160.967 233.34 159.588 233.367C157.292 233.409 154.995 233.411 152.699 233.361C151.188 233.329 150.329 232.42 150.309 230.887C150.279 228.64 150.28 226.393 150.308 224.147C150.328 222.571 150.913 222.024 152.479 222.005C152.579 222.005 152.679 222.004 152.779 222.004C153.927 222.004 155.075 222.004 156.224 222.001H156.221Z" fill="black"/>
<path d="M207.608 318.822C207.608 317.624 207.63 316.426 207.602 315.228C207.569 313.83 208.304 313.224 209.618 313.216C212.014 313.202 214.41 313.192 216.805 313.214C218.187 313.226 218.973 313.944 218.998 315.29C219.043 317.735 219.031 320.18 219.011 322.626C218.999 324.043 218.069 324.755 216.823 324.811C214.483 324.918 212.132 324.892 209.789 324.808C208.229 324.752 207.622 323.991 207.608 322.414C207.602 321.815 207.604 321.216 207.604 320.616C207.604 320.016 207.604 319.419 207.604 318.819H207.609L207.608 318.822Z" fill="black"/>
<path d="M201.78 313.192C200.584 313.192 199.385 313.15 198.192 313.204C196.874 313.264 196.164 312.564 196.11 311.383C195.998 308.896 195.94 306.398 196.054 303.914C196.116 302.584 197.005 301.782 198.462 301.794C200.754 301.814 203.048 301.782 205.341 301.814C206.906 301.835 207.588 302.548 207.594 304.107C207.606 306.45 207.613 308.792 207.592 311.135C207.577 312.659 207.04 313.172 205.518 313.194C204.87 313.203 204.222 313.196 203.574 313.196C202.976 313.196 202.378 313.196 201.78 313.196V313.191V313.192Z" fill="black"/>
<path d="M207.597 284.681C207.597 285.879 207.585 287.078 207.599 288.278C207.615 289.649 206.825 290.337 205.585 290.375C203.089 290.453 200.589 290.45 198.093 290.378C196.81 290.341 196.082 289.479 196.044 288.233C195.97 285.887 195.992 283.538 196.001 281.19C196.008 279.75 197.004 279.11 198.212 279.057C200.654 278.947 203.11 278.946 205.55 279.078C206.821 279.147 207.815 279.749 207.621 281.387C207.491 282.471 207.597 283.582 207.595 284.682L207.597 284.681Z" fill="black"/>
<path d="M259.05 233.388C260.247 233.388 261.447 233.342 262.643 233.4C264.111 233.469 264.818 234.194 264.84 235.661C264.872 237.806 264.856 239.953 264.832 242.098C264.815 243.724 264.028 244.648 262.408 244.71C260.116 244.8 257.816 244.793 255.523 244.73C254.006 244.689 253.212 243.758 253.208 242.238C253.202 240.042 253.2 237.846 253.208 235.65C253.214 234.073 253.824 233.437 255.459 233.378C256.655 233.336 257.854 233.37 259.052 233.37V233.389L259.05 233.388Z" fill="black"/>
<path d="M207.598 238.997C207.598 240.096 207.601 241.193 207.598 242.292C207.593 243.774 206.89 244.664 205.422 244.716C203.029 244.801 200.626 244.845 198.238 244.708C196.946 244.634 196.033 243.817 196.026 242.35C196.016 240.154 195.978 237.957 196.017 235.763C196.046 234.088 196.709 233.416 198.394 233.383C200.74 233.337 203.086 233.339 205.432 233.396C207.102 233.437 207.596 234.019 207.6 235.703C207.602 236.801 207.6 237.899 207.6 238.997H207.598Z" fill="black"/>
<path d="M179.014 164.63C180.113 164.63 181.21 164.615 182.309 164.634C183.737 164.657 184.685 165.451 184.733 166.887C184.81 169.23 184.798 171.579 184.726 173.923C184.681 175.385 183.674 176.251 182.192 176.262C179.996 176.278 177.8 176.281 175.604 176.255C174.072 176.238 173.433 175.634 173.401 174.057C173.352 171.662 173.352 169.265 173.401 166.87C173.434 165.25 174.092 164.669 175.721 164.63C176.27 164.617 176.82 164.625 177.368 164.625C177.917 164.625 178.466 164.625 179.014 164.625V164.63Z" fill="black"/>
<path d="M213.305 222.005C214.601 222.005 215.898 222.047 217.191 221.993C218.409 221.944 218.967 222.596 218.993 223.679C219.05 226.219 219.062 228.763 219.009 231.303C218.982 232.621 218.058 233.308 216.858 233.348C214.419 233.432 211.973 233.43 209.534 233.326C208.311 233.274 207.559 232.573 207.589 231.177C207.641 228.687 207.63 226.193 207.593 223.703C207.575 222.512 208.038 221.953 209.267 221.996C210.611 222.044 211.958 222.007 213.303 222.007L213.305 222.005Z" fill="black"/>
<path d="M190.472 279.021C189.325 279.021 188.177 278.998 187.03 279.026C185.614 279.061 184.825 278.297 184.776 276.987C184.682 274.498 184.702 272.001 184.77 269.509C184.802 268.332 185.39 267.573 186.746 267.596C189.24 267.637 191.734 267.644 194.228 267.585C195.13 267.564 195.782 267.864 195.806 268.733C195.89 271.704 195.926 274.68 195.849 277.65C195.825 278.591 195.078 279.071 194.062 279.038C192.866 278.998 191.669 279.029 190.472 279.029V279.022V279.021Z" fill="black"/>
<path d="M121.674 210.31C120.527 210.31 119.379 210.308 118.232 210.31C116.951 210.312 116.199 209.764 116.199 208.398C116.199 205.954 116.132 203.508 116.206 201.067C116.251 199.568 116.991 198.942 118.496 198.924C120.691 198.899 122.886 198.899 125.08 198.928C126.696 198.95 127.642 199.866 127.647 201.387C127.656 203.58 127.654 205.774 127.62 207.967C127.594 209.703 127.024 210.261 125.264 210.305C124.068 210.336 122.87 210.311 121.674 210.31Z" fill="black"/>
<path d="M58.8277 204.859C58.8277 206.104 58.7571 207.355 58.8477 208.595C58.9344 209.771 58.3371 210.264 57.3251 210.283C54.6851 210.331 52.0425 210.343 49.4038 210.28C48.1305 210.249 47.4465 209.468 47.4425 208.172C47.4359 205.831 47.3972 203.487 47.4665 201.147C47.5065 199.803 48.4239 199.004 49.6745 198.95C52.1105 198.842 54.5585 198.868 56.9971 198.959C58.1531 199.002 58.9224 199.604 58.8384 200.975C58.7597 202.266 58.8211 203.564 58.8211 204.86C58.8237 204.86 58.8251 204.86 58.8277 204.86V204.859Z" fill="black"/>
<path d="M190.608 290.41C191.657 290.41 192.706 290.395 193.754 290.414C195.338 290.441 196.05 291.053 196.096 292.665C196.161 295.01 196.126 297.359 196.081 299.707C196.054 301.075 195.333 301.808 193.91 301.798C191.613 301.78 189.314 301.811 187.017 301.774C185.417 301.748 184.738 301.066 184.724 299.507C184.702 297.259 184.704 295.011 184.734 292.763C184.754 291.246 185.63 290.426 187.161 290.415C188.31 290.407 189.458 290.414 190.608 290.41Z" fill="black"/>
<path d="M190.648 244.712C191.696 244.712 192.744 244.686 193.79 244.717C195.429 244.765 196.057 245.325 196.098 246.982C196.156 249.276 196.101 251.572 196.085 253.866C196.076 255.237 195.398 256.052 194.009 256.077C191.616 256.121 189.216 256.174 186.828 256.061C185.529 256 184.646 255.313 184.698 253.762C184.773 251.52 184.698 249.273 184.733 247.028C184.756 245.532 185.549 244.761 187.057 244.724C188.253 244.693 189.452 244.717 190.649 244.717V244.712H190.648Z" fill="black"/>
<path d="M76.0729 153.281C72.1262 153.281 68.1809 153.293 64.2343 153.277C60.893 153.263 58.821 151.19 58.8197 147.87C58.8157 140.077 58.9264 132.282 58.7704 124.493C58.709 121.43 61.5703 118.709 64.5023 118.768C72.2916 118.925 80.0861 118.815 87.8794 118.823C91.078 118.825 93.2487 120.945 93.2567 124.134C93.2793 132.177 93.3873 140.221 93.214 148.26C93.1407 151.682 91.7327 153.073 88.2087 153.234C84.1714 153.418 80.1181 153.277 76.0729 153.279V153.281Z" fill="black"/>
<path d="M253.198 136.128C253.198 140.177 253.052 144.232 253.246 148.272C253.392 151.337 251.115 153.217 248.508 153.243C240.262 153.33 232.014 153.307 223.766 153.254C221.001 153.237 219.063 151.333 219.043 148.57C218.983 140.324 218.974 132.074 219.057 123.828C219.087 120.746 221.274 118.83 224.401 118.826C232.149 118.818 239.896 118.817 247.643 118.821C251.234 118.824 253.198 120.762 253.198 124.28C253.198 128.229 253.198 132.177 253.198 136.126V136.128Z" fill="black"/>
<path d="M76.0462 313.199C71.9502 313.199 67.8556 313.203 63.7597 313.198C61.0517 313.194 58.8477 311.099 58.8357 308.359C58.7984 300.218 58.8024 292.077 58.8317 283.937C58.841 281.237 60.997 279.057 63.8237 279.037C72.0636 278.978 80.3048 278.985 88.5461 279.038C91.3314 279.057 93.2567 281.075 93.2673 283.878C93.2967 292.019 93.2953 300.159 93.2673 308.3C93.258 310.872 91.4007 313.416 88.3327 313.255C84.2488 313.039 80.1448 313.202 76.0489 313.2L76.0462 313.199Z" fill="black"/>
<path d="M68.5194 385.119C69.4261 385.119 70.0861 384.965 70.4994 384.659C70.9127 384.352 71.1194 383.919 71.1194 383.359C71.1194 383.025 71.0461 382.739 70.8994 382.499C70.7661 382.259 70.5661 382.045 70.2994 381.859C70.0461 381.659 69.7327 381.479 69.3594 381.319C68.9861 381.145 68.5594 380.979 68.0794 380.819C67.5994 380.645 67.1327 380.459 66.6794 380.259C66.2394 380.045 65.8461 379.785 65.4994 379.479C65.1661 379.172 64.8927 378.805 64.6794 378.379C64.4794 377.952 64.3794 377.439 64.3794 376.839C64.3794 375.585 64.8127 374.605 65.6794 373.899C66.5461 373.179 67.7261 372.819 69.2194 372.819C70.0861 372.819 70.8527 372.919 71.5194 373.119C72.1994 373.305 72.7327 373.512 73.1194 373.739L72.3394 375.779C71.8861 375.525 71.3861 375.332 70.8394 375.199C70.3061 375.065 69.7527 374.999 69.1794 374.999C68.4994 374.999 67.9661 375.139 67.5794 375.419C67.2061 375.699 67.0194 376.092 67.0194 376.599C67.0194 376.905 67.0794 377.172 67.1994 377.399C67.3327 377.612 67.5127 377.805 67.7394 377.979C67.9794 378.152 68.2527 378.312 68.5594 378.459C68.8794 378.605 69.2261 378.745 69.5994 378.879C70.2527 379.119 70.8327 379.365 71.3394 379.619C71.8594 379.859 72.2927 380.152 72.6394 380.499C72.9994 380.832 73.2727 381.232 73.4594 381.699C73.6461 382.152 73.7394 382.705 73.7394 383.359C73.7394 384.612 73.2927 385.585 72.3994 386.279C71.5194 386.959 70.2261 387.299 68.5194 387.299C67.9461 387.299 67.4194 387.259 66.9394 387.179C66.4727 387.112 66.0527 387.025 65.6794 386.919C65.3194 386.812 65.0061 386.705 64.7394 386.599C64.4727 386.479 64.2594 386.372 64.0994 386.279L64.8394 384.219C65.1994 384.419 65.6861 384.619 66.2994 384.819C66.9127 385.019 67.6527 385.119 68.5194 385.119ZM82.5002 378.719C82.3002 378.652 82.0202 378.585 81.6602 378.519C81.3135 378.439 80.9068 378.399 80.4402 378.399C80.1735 378.399 79.8868 378.425 79.5802 378.479C79.2868 378.532 79.0802 378.579 78.9602 378.619V386.999H76.5402V377.039C77.0068 376.865 77.5868 376.705 78.2802 376.559C78.9868 376.399 79.7668 376.319 80.6202 376.319C80.7802 376.319 80.9668 376.332 81.1802 376.359C81.3935 376.372 81.6068 376.399 81.8202 376.439C82.0335 376.465 82.2402 376.505 82.4402 376.559C82.6402 376.599 82.8002 376.639 82.9202 376.679L82.5002 378.719ZM84.7266 381.819C84.7266 380.899 84.8599 380.092 85.1266 379.399C85.4066 378.705 85.7732 378.132 86.2266 377.679C86.6799 377.212 87.1999 376.865 87.7866 376.639C88.3732 376.399 88.9732 376.279 89.5866 376.279C91.0266 376.279 92.1466 376.725 92.9466 377.619C93.7599 378.512 94.1666 379.845 94.1666 381.619C94.1666 381.752 94.1599 381.905 94.1466 382.079C94.1466 382.239 94.1399 382.385 94.1266 382.519H87.2266C87.2932 383.359 87.5866 384.012 88.1066 384.479C88.6399 384.932 89.4066 385.159 90.4066 385.159C90.9932 385.159 91.5266 385.105 92.0066 384.999C92.4999 384.892 92.8866 384.779 93.1666 384.659L93.4866 386.639C93.3532 386.705 93.1666 386.779 92.9266 386.859C92.6999 386.925 92.4332 386.985 92.1266 387.039C91.8332 387.105 91.5132 387.159 91.1666 387.199C90.8199 387.239 90.4666 387.259 90.1066 387.259C89.1866 387.259 88.3866 387.125 87.7066 386.859C87.0266 386.579 86.4666 386.199 86.0266 385.719C85.5866 385.225 85.2599 384.652 85.0466 383.999C84.8332 383.332 84.7266 382.605 84.7266 381.819ZM91.7466 380.739C91.7466 380.405 91.6999 380.092 91.6066 379.799C91.5132 379.492 91.3732 379.232 91.1866 379.019C91.0132 378.792 90.7932 378.619 90.5266 378.499C90.2732 378.365 89.9666 378.299 89.6066 378.299C89.2332 378.299 88.9066 378.372 88.6266 378.519C88.3466 378.652 88.1066 378.832 87.9066 379.059C87.7199 379.285 87.5732 379.545 87.4666 379.839C87.3599 380.132 87.2866 380.432 87.2466 380.739H91.7466ZM96.8524 381.819C96.8524 380.899 96.9857 380.092 97.2524 379.399C97.5324 378.705 97.899 378.132 98.3524 377.679C98.8057 377.212 99.3257 376.865 99.9124 376.639C100.499 376.399 101.099 376.279 101.712 376.279C103.152 376.279 104.272 376.725 105.072 377.619C105.886 378.512 106.292 379.845 106.292 381.619C106.292 381.752 106.286 381.905 106.272 382.079C106.272 382.239 106.266 382.385 106.252 382.519H99.3524C99.419 383.359 99.7124 384.012 100.232 384.479C100.766 384.932 101.532 385.159 102.532 385.159C103.119 385.159 103.652 385.105 104.132 384.999C104.626 384.892 105.012 384.779 105.292 384.659L105.612 386.639C105.479 386.705 105.292 386.779 105.052 386.859C104.826 386.925 104.559 386.985 104.252 387.039C103.959 387.105 103.639 387.159 103.292 387.199C102.946 387.239 102.592 387.259 102.232 387.259C101.312 387.259 100.512 387.125 99.8324 386.859C99.1524 386.579 98.5924 386.199 98.1524 385.719C97.7124 385.225 97.3857 384.652 97.1724 383.999C96.959 383.332 96.8524 382.605 96.8524 381.819ZM103.872 380.739C103.872 380.405 103.826 380.092 103.732 379.799C103.639 379.492 103.499 379.232 103.312 379.019C103.139 378.792 102.919 378.619 102.652 378.499C102.399 378.365 102.092 378.299 101.732 378.299C101.359 378.299 101.032 378.372 100.752 378.519C100.472 378.652 100.232 378.832 100.032 379.059C99.8457 379.285 99.699 379.545 99.5924 379.839C99.4857 380.132 99.4124 380.432 99.3724 380.739H103.872ZM115.518 378.719C115.318 378.652 115.038 378.585 114.678 378.519C114.331 378.439 113.925 378.399 113.458 378.399C113.191 378.399 112.905 378.425 112.598 378.479C112.305 378.532 112.098 378.579 111.978 378.619V386.999H109.558V377.039C110.025 376.865 110.605 376.705 111.298 376.559C112.005 376.399 112.785 376.319 113.638 376.319C113.798 376.319 113.985 376.332 114.198 376.359C114.411 376.372 114.625 376.399 114.838 376.439C115.051 376.465 115.258 376.505 115.458 376.559C115.658 376.599 115.818 376.639 115.938 376.679L115.518 378.719ZM122.005 385.299C122.751 385.299 123.318 385.259 123.705 385.179V382.499C123.571 382.459 123.378 382.419 123.125 382.379C122.871 382.339 122.591 382.319 122.285 382.319C122.018 382.319 121.745 382.339 121.465 382.379C121.198 382.419 120.951 382.492 120.725 382.599C120.511 382.705 120.338 382.859 120.205 383.059C120.071 383.245 120.005 383.485 120.005 383.779C120.005 384.352 120.185 384.752 120.545 384.979C120.905 385.192 121.391 385.299 122.005 385.299ZM121.805 376.279C122.605 376.279 123.278 376.379 123.825 376.579C124.371 376.779 124.805 377.059 125.125 377.419C125.458 377.779 125.691 378.219 125.825 378.739C125.971 379.245 126.045 379.805 126.045 380.419V386.759C125.671 386.839 125.105 386.932 124.345 387.039C123.598 387.159 122.751 387.219 121.805 387.219C121.178 387.219 120.605 387.159 120.085 387.039C119.565 386.919 119.118 386.725 118.745 386.459C118.385 386.192 118.098 385.845 117.885 385.419C117.685 384.992 117.585 384.465 117.585 383.839C117.585 383.239 117.698 382.732 117.925 382.319C118.165 381.905 118.485 381.572 118.885 381.319C119.285 381.052 119.745 380.865 120.265 380.759C120.798 380.639 121.351 380.579 121.925 380.579C122.191 380.579 122.471 380.599 122.765 380.639C123.058 380.665 123.371 380.719 123.705 380.799V380.399C123.705 380.119 123.671 379.852 123.605 379.599C123.538 379.345 123.418 379.125 123.245 378.939C123.085 378.739 122.865 378.585 122.585 378.479C122.318 378.372 121.978 378.319 121.565 378.319C121.005 378.319 120.491 378.359 120.025 378.439C119.558 378.519 119.178 378.612 118.885 378.719L118.585 376.759C118.891 376.652 119.338 376.545 119.925 376.439C120.511 376.332 121.138 376.279 121.805 376.279ZM135.668 381.499C135.668 380.405 135.528 379.619 135.248 379.139C134.981 378.645 134.475 378.399 133.728 378.399C133.461 378.399 133.168 378.419 132.848 378.459C132.528 378.499 132.288 378.532 132.128 378.559V386.999H129.708V376.879C130.175 376.745 130.781 376.619 131.528 376.499C132.288 376.379 133.088 376.319 133.928 376.319C134.648 376.319 135.235 376.412 135.688 376.599C136.155 376.785 136.541 377.032 136.848 377.339C136.995 377.232 137.181 377.119 137.408 376.999C137.635 376.879 137.888 376.772 138.168 376.679C138.448 376.572 138.741 376.485 139.048 376.419C139.368 376.352 139.688 376.319 140.008 376.319C140.821 376.319 141.488 376.439 142.008 376.679C142.541 376.905 142.955 377.232 143.248 377.659C143.555 378.072 143.761 378.579 143.868 379.179C143.988 379.765 144.048 380.412 144.048 381.119V386.999H141.628V381.499C141.628 380.405 141.495 379.619 141.228 379.139C140.961 378.645 140.448 378.399 139.688 378.399C139.301 378.399 138.935 378.465 138.588 378.599C138.241 378.719 137.981 378.839 137.808 378.959C137.915 379.292 137.988 379.645 138.028 380.019C138.068 380.392 138.088 380.792 138.088 381.219V386.999H135.668V381.499ZM151.393 385.299C152.139 385.299 152.706 385.259 153.093 385.179V382.499C152.959 382.459 152.766 382.419 152.513 382.379C152.259 382.339 151.979 382.319 151.673 382.319C151.406 382.319 151.133 382.339 150.853 382.379C150.586 382.419 150.339 382.492 150.113 382.599C149.899 382.705 149.726 382.859 149.593 383.059C149.459 383.245 149.393 383.485 149.393 383.779C149.393 384.352 149.573 384.752 149.933 384.979C150.293 385.192 150.779 385.299 151.393 385.299ZM151.193 376.279C151.993 376.279 152.666 376.379 153.213 376.579C153.759 376.779 154.193 377.059 154.513 377.419C154.846 377.779 155.079 378.219 155.213 378.739C155.359 379.245 155.433 379.805 155.433 380.419V386.759C155.059 386.839 154.493 386.932 153.733 387.039C152.986 387.159 152.139 387.219 151.193 387.219C150.566 387.219 149.993 387.159 149.473 387.039C148.953 386.919 148.506 386.725 148.133 386.459C147.773 386.192 147.486 385.845 147.273 385.419C147.073 384.992 146.973 384.465 146.973 383.839C146.973 383.239 147.086 382.732 147.313 382.319C147.553 381.905 147.873 381.572 148.273 381.319C148.673 381.052 149.133 380.865 149.653 380.759C150.186 380.639 150.739 380.579 151.313 380.579C151.579 380.579 151.859 380.599 152.153 380.639C152.446 380.665 152.759 380.719 153.093 380.799V380.399C153.093 380.119 153.059 379.852 152.993 379.599C152.926 379.345 152.806 379.125 152.633 378.939C152.473 378.739 152.253 378.585 151.973 378.479C151.706 378.372 151.366 378.319 150.953 378.319C150.393 378.319 149.879 378.359 149.413 378.439C148.946 378.519 148.566 378.612 148.273 378.719L147.973 376.759C148.279 376.652 148.726 376.545 149.313 376.439C149.899 376.332 150.526 376.279 151.193 376.279ZM158.516 381.779C158.516 381.005 158.636 380.285 158.876 379.619C159.116 378.939 159.456 378.352 159.896 377.859C160.35 377.365 160.896 376.979 161.536 376.699C162.176 376.419 162.896 376.279 163.696 376.279C164.683 376.279 165.616 376.459 166.496 376.819L165.976 378.799C165.696 378.679 165.376 378.579 165.016 378.499C164.67 378.419 164.296 378.379 163.896 378.379C162.95 378.379 162.23 378.679 161.736 379.279C161.243 379.865 160.996 380.699 160.996 381.779C160.996 382.819 161.23 383.645 161.696 384.259C162.163 384.859 162.95 385.159 164.056 385.159C164.47 385.159 164.876 385.119 165.276 385.039C165.676 384.959 166.023 384.859 166.316 384.739L166.656 386.739C166.39 386.872 165.983 386.992 165.436 387.099C164.903 387.205 164.35 387.259 163.776 387.259C162.883 387.259 162.103 387.125 161.436 386.859C160.783 386.579 160.236 386.199 159.796 385.719C159.37 385.225 159.05 384.645 158.836 383.979C158.623 383.299 158.516 382.565 158.516 381.779ZM169.23 386.999V371.879L171.65 371.479V376.659C171.917 376.565 172.223 376.485 172.57 376.419C172.93 376.352 173.283 376.319 173.63 376.319C174.47 376.319 175.163 376.439 175.71 376.679C176.27 376.905 176.717 377.232 177.05 377.659C177.383 378.072 177.617 378.572 177.75 379.159C177.897 379.745 177.97 380.399 177.97 381.119V386.999H175.55V381.499C175.55 380.939 175.51 380.465 175.43 380.079C175.363 379.679 175.243 379.359 175.07 379.119C174.91 378.865 174.69 378.685 174.41 378.579C174.13 378.459 173.783 378.399 173.37 378.399C173.05 378.399 172.723 378.432 172.39 378.499C172.057 378.565 171.81 378.625 171.65 378.679V386.999H169.23ZM185.251 385.299C185.997 385.299 186.564 385.259 186.951 385.179V382.499C186.817 382.459 186.624 382.419 186.371 382.379C186.117 382.339 185.837 382.319 185.531 382.319C185.264 382.319 184.991 382.339 184.711 382.379C184.444 382.419 184.197 382.492 183.971 382.599C183.757 382.705 183.584 382.859 183.451 383.059C183.317 383.245 183.251 383.485 183.251 383.779C183.251 384.352 183.431 384.752 183.791 384.979C184.151 385.192 184.637 385.299 185.251 385.299ZM185.051 376.279C185.851 376.279 186.524 376.379 187.071 376.579C187.617 376.779 188.051 377.059 188.371 377.419C188.704 377.779 188.937 378.219 189.071 378.739C189.217 379.245 189.291 379.805 189.291 380.419V386.759C188.917 386.839 188.351 386.932 187.591 387.039C186.844 387.159 185.997 387.219 185.051 387.219C184.424 387.219 183.851 387.159 183.331 387.039C182.811 386.919 182.364 386.725 181.991 386.459C181.631 386.192 181.344 385.845 181.131 385.419C180.931 384.992 180.831 384.465 180.831 383.839C180.831 383.239 180.944 382.732 181.171 382.319C181.411 381.905 181.731 381.572 182.131 381.319C182.531 381.052 182.991 380.865 183.511 380.759C184.044 380.639 184.597 380.579 185.171 380.579C185.437 380.579 185.717 380.599 186.011 380.639C186.304 380.665 186.617 380.719 186.951 380.799V380.399C186.951 380.119 186.917 379.852 186.851 379.599C186.784 379.345 186.664 379.125 186.491 378.939C186.331 378.739 186.111 378.585 185.831 378.479C185.564 378.372 185.224 378.319 184.811 378.319C184.251 378.319 183.737 378.359 183.271 378.439C182.804 378.519 182.424 378.612 182.131 378.719L181.831 376.759C182.137 376.652 182.584 376.545 183.171 376.439C183.757 376.332 184.384 376.279 185.051 376.279ZM192.954 376.879C193.421 376.745 194.028 376.619 194.774 376.499C195.521 376.379 196.348 376.319 197.254 376.319C198.108 376.319 198.821 376.439 199.394 376.679C199.968 376.905 200.421 377.232 200.754 377.659C201.101 378.072 201.341 378.579 201.474 379.179C201.621 379.765 201.694 380.412 201.694 381.119V386.999H199.274V381.499C199.274 380.939 199.234 380.465 199.154 380.079C199.088 379.679 198.968 379.359 198.794 379.119C198.634 378.865 198.408 378.685 198.114 378.579C197.834 378.459 197.488 378.399 197.074 378.399C196.768 378.399 196.448 378.419 196.114 378.459C195.781 378.499 195.534 378.532 195.374 378.559V386.999H192.954V376.879ZM207.253 381.739C207.253 382.805 207.507 383.645 208.013 384.259C208.52 384.859 209.22 385.159 210.113 385.159C210.5 385.159 210.827 385.145 211.093 385.119C211.373 385.079 211.6 385.039 211.773 384.999V378.999C211.56 378.852 211.273 378.719 210.913 378.599C210.567 378.465 210.193 378.399 209.793 378.399C208.913 378.399 208.267 378.699 207.853 379.299C207.453 379.899 207.253 380.712 207.253 381.739ZM214.193 386.679C213.713 386.825 213.107 386.959 212.373 387.079C211.653 387.199 210.893 387.259 210.093 387.259C209.267 387.259 208.527 387.132 207.873 386.879C207.22 386.625 206.66 386.265 206.193 385.799C205.74 385.319 205.387 384.745 205.133 384.079C204.893 383.399 204.773 382.639 204.773 381.799C204.773 380.972 204.873 380.225 205.073 379.559C205.287 378.879 205.593 378.299 205.993 377.819C206.393 377.339 206.88 376.972 207.453 376.719C208.027 376.452 208.687 376.319 209.433 376.319C209.94 376.319 210.387 376.379 210.773 376.499C211.16 376.619 211.493 376.752 211.773 376.899V371.879L214.193 371.479V386.679ZM223.928 378.719C223.728 378.652 223.448 378.585 223.088 378.519C222.741 378.439 222.334 378.399 221.868 378.399C221.601 378.399 221.314 378.425 221.008 378.479C220.714 378.532 220.508 378.579 220.388 378.619V386.999H217.968V377.039C218.434 376.865 219.014 376.705 219.708 376.559C220.414 376.399 221.194 376.319 222.048 376.319C222.208 376.319 222.394 376.332 222.608 376.359C222.821 376.372 223.034 376.399 223.248 376.439C223.461 376.465 223.668 376.505 223.868 376.559C224.068 376.599 224.228 376.639 224.348 376.679L223.928 378.719ZM230.414 385.299C231.161 385.299 231.727 385.259 232.114 385.179V382.499C231.981 382.459 231.787 382.419 231.534 382.379C231.281 382.339 231.001 382.319 230.694 382.319C230.427 382.319 230.154 382.339 229.874 382.379C229.607 382.419 229.361 382.492 229.134 382.599C228.921 382.705 228.747 382.859 228.614 383.059C228.481 383.245 228.414 383.485 228.414 383.779C228.414 384.352 228.594 384.752 228.954 384.979C229.314 385.192 229.801 385.299 230.414 385.299ZM230.214 376.279C231.014 376.279 231.687 376.379 232.234 376.579C232.781 376.779 233.214 377.059 233.534 377.419C233.867 377.779 234.101 378.219 234.234 378.739C234.381 379.245 234.454 379.805 234.454 380.419V386.759C234.081 386.839 233.514 386.932 232.754 387.039C232.007 387.159 231.161 387.219 230.214 387.219C229.587 387.219 229.014 387.159 228.494 387.039C227.974 386.919 227.527 386.725 227.154 386.459C226.794 386.192 226.507 385.845 226.294 385.419C226.094 384.992 225.994 384.465 225.994 383.839C225.994 383.239 226.107 382.732 226.334 382.319C226.574 381.905 226.894 381.572 227.294 381.319C227.694 381.052 228.154 380.865 228.674 380.759C229.207 380.639 229.761 380.579 230.334 380.579C230.601 380.579 230.881 380.599 231.174 380.639C231.467 380.665 231.781 380.719 232.114 380.799V380.399C232.114 380.119 232.081 379.852 232.014 379.599C231.947 379.345 231.827 379.125 231.654 378.939C231.494 378.739 231.274 378.585 230.994 378.479C230.727 378.372 230.387 378.319 229.974 378.319C229.414 378.319 228.901 378.359 228.434 378.439C227.967 378.519 227.587 378.612 227.294 378.719L226.994 376.759C227.301 376.652 227.747 376.545 228.334 376.439C228.921 376.332 229.547 376.279 230.214 376.279ZM238.118 376.879C238.584 376.745 239.191 376.619 239.938 376.499C240.684 376.379 241.511 376.319 242.418 376.319C243.271 376.319 243.984 376.439 244.558 376.679C245.131 376.905 245.584 377.232 245.918 377.659C246.264 378.072 246.504 378.579 246.638 379.179C246.784 379.765 246.858 380.412 246.858 381.119V386.999H244.438V381.499C244.438 380.939 244.398 380.465 244.318 380.079C244.251 379.679 244.131 379.359 243.958 379.119C243.798 378.865 243.571 378.685 243.278 378.579C242.998 378.459 242.651 378.399 242.238 378.399C241.931 378.399 241.611 378.419 241.278 378.459C240.944 378.499 240.698 378.532 240.538 378.559V386.999H238.118V376.879Z" fill="#29695D"/>
<path d="M45.2533 412.209C44.572 412.209 43.9513 412.097 43.3913 411.873C42.8313 411.649 42.3507 411.322 41.9493 410.893C41.548 410.463 41.2353 409.936 41.0113 409.311C40.7967 408.676 40.6893 407.953 40.6893 407.141C40.6893 406.329 40.8107 405.61 41.0533 404.985C41.3053 404.35 41.6413 403.818 42.0613 403.389C42.4813 402.959 42.9713 402.633 43.5313 402.409C44.0913 402.185 44.6887 402.073 45.3233 402.073C45.7247 402.073 46.084 402.101 46.4013 402.157C46.728 402.213 47.008 402.278 47.2413 402.353C47.484 402.427 47.68 402.502 47.8293 402.577C47.9787 402.651 48.0813 402.707 48.1373 402.745L47.7453 403.865C47.6613 403.809 47.54 403.748 47.3813 403.683C47.2227 403.617 47.0407 403.552 46.8353 403.487C46.6393 403.421 46.42 403.37 46.1773 403.333C45.944 403.286 45.706 403.263 45.4633 403.263C44.95 403.263 44.488 403.351 44.0773 403.529C43.6667 403.706 43.3167 403.963 43.0273 404.299C42.738 404.635 42.514 405.045 42.3553 405.531C42.206 406.007 42.1313 406.543 42.1313 407.141C42.1313 407.719 42.1967 408.247 42.3273 408.723C42.4673 409.199 42.6727 409.609 42.9433 409.955C43.214 410.291 43.55 410.552 43.9513 410.739C44.362 410.925 44.838 411.019 45.3793 411.019C46.0047 411.019 46.5227 410.953 46.9333 410.823C47.344 410.692 47.652 410.575 47.8573 410.473L48.2073 411.593C48.142 411.639 48.0253 411.7 47.8573 411.775C47.6893 411.84 47.4793 411.905 47.2273 411.971C46.9753 412.036 46.6813 412.092 46.3453 412.139C46.0093 412.185 45.6453 412.209 45.2533 412.209ZM56.5999 408.359C56.5999 408.937 56.5159 409.46 56.3479 409.927C56.1799 410.393 55.9419 410.795 55.6339 411.131C55.3352 411.467 54.9759 411.728 54.5559 411.915C54.1359 412.092 53.6785 412.181 53.1839 412.181C52.6892 412.181 52.2319 412.092 51.8119 411.915C51.3919 411.728 51.0279 411.467 50.7199 411.131C50.4212 410.795 50.1879 410.393 50.0199 409.927C49.8519 409.46 49.7679 408.937 49.7679 408.359C49.7679 407.789 49.8519 407.271 50.0199 406.805C50.1879 406.329 50.4212 405.923 50.7199 405.587C51.0279 405.251 51.3919 404.994 51.8119 404.817C52.2319 404.63 52.6892 404.537 53.1839 404.537C53.6785 404.537 54.1359 404.63 54.5559 404.817C54.9759 404.994 55.3352 405.251 55.6339 405.587C55.9419 405.923 56.1799 406.329 56.3479 406.805C56.5159 407.271 56.5999 407.789 56.5999 408.359ZM55.2419 408.359C55.2419 407.537 55.0552 406.889 54.6819 406.413C54.3179 405.927 53.8185 405.685 53.1839 405.685C52.5492 405.685 52.0452 405.927 51.6719 406.413C51.3079 406.889 51.1259 407.537 51.1259 408.359C51.1259 409.18 51.3079 409.833 51.6719 410.319C52.0452 410.795 52.5492 411.033 53.1839 411.033C53.8185 411.033 54.3179 410.795 54.6819 410.319C55.0552 409.833 55.2419 409.18 55.2419 408.359ZM58.3757 407.197H61.8337V408.415H58.3757V407.197ZM66.8573 401.135C67.24 401.135 67.5666 401.163 67.8373 401.219C68.1173 401.275 68.3133 401.326 68.4253 401.373L68.1873 402.493C68.0753 402.437 67.9166 402.385 67.7113 402.339C67.506 402.283 67.254 402.255 66.9553 402.255C66.3486 402.255 65.924 402.423 65.6813 402.759C65.4386 403.085 65.3173 403.529 65.3173 404.089V404.719H68.1173V405.811H65.3173V411.999H64.0153V404.061C64.0153 403.127 64.244 402.409 64.7013 401.905C65.1586 401.391 65.8773 401.135 66.8573 401.135ZM76.5417 408.359C76.5417 408.937 76.4577 409.46 76.2897 409.927C76.1217 410.393 75.8837 410.795 75.5757 411.131C75.277 411.467 74.9177 411.728 74.4977 411.915C74.0777 412.092 73.6203 412.181 73.1257 412.181C72.631 412.181 72.1737 412.092 71.7537 411.915C71.3337 411.728 70.9697 411.467 70.6617 411.131C70.363 410.795 70.1297 410.393 69.9617 409.927C69.7937 409.46 69.7097 408.937 69.7097 408.359C69.7097 407.789 69.7937 407.271 69.9617 406.805C70.1297 406.329 70.363 405.923 70.6617 405.587C70.9697 405.251 71.3337 404.994 71.7537 404.817C72.1737 404.63 72.631 404.537 73.1257 404.537C73.6203 404.537 74.0777 404.63 74.4977 404.817C74.9177 404.994 75.277 405.251 75.5757 405.587C75.8837 405.923 76.1217 406.329 76.2897 406.805C76.4577 407.271 76.5417 407.789 76.5417 408.359ZM75.1837 408.359C75.1837 407.537 74.997 406.889 74.6237 406.413C74.2597 405.927 73.7603 405.685 73.1257 405.685C72.491 405.685 71.987 405.927 71.6137 406.413C71.2497 406.889 71.0677 407.537 71.0677 408.359C71.0677 409.18 71.2497 409.833 71.6137 410.319C71.987 410.795 72.491 411.033 73.1257 411.033C73.7603 411.033 74.2597 410.795 74.6237 410.319C74.997 409.833 75.1837 409.18 75.1837 408.359ZM84.8695 411.789C84.5708 411.863 84.1742 411.943 83.6795 412.027C83.1942 412.111 82.6295 412.153 81.9855 412.153C81.4255 412.153 80.9542 412.073 80.5715 411.915C80.1888 411.747 79.8808 411.513 79.6475 411.215C79.4142 410.916 79.2462 410.566 79.1435 410.165C79.0408 409.754 78.9895 409.301 78.9895 408.807V404.719H80.2915V408.527C80.2915 409.413 80.4315 410.048 80.7115 410.431C80.9915 410.813 81.4628 411.005 82.1255 411.005C82.2655 411.005 82.4102 411 82.5595 410.991C82.7088 410.981 82.8488 410.972 82.9795 410.963C83.1102 410.944 83.2268 410.93 83.3295 410.921C83.4415 410.902 83.5208 410.883 83.5675 410.865V404.719H84.8695V411.789ZM87.8126 404.929C88.1112 404.854 88.5079 404.775 89.0026 404.691C89.4972 404.607 90.0666 404.565 90.7106 404.565C91.2892 404.565 91.7699 404.649 92.1526 404.817C92.5352 404.975 92.8386 405.204 93.0626 405.503C93.2959 405.792 93.4592 406.142 93.5526 406.553C93.6459 406.963 93.6926 407.416 93.6926 407.911V411.999H92.3906V408.191C92.3906 407.743 92.3579 407.36 92.2926 407.043C92.2366 406.725 92.1386 406.469 91.9986 406.273C91.8586 406.077 91.6719 405.937 91.4386 405.853C91.2052 405.759 90.9159 405.713 90.5706 405.713C90.4306 405.713 90.2859 405.717 90.1366 405.727C89.9872 405.736 89.8426 405.75 89.7026 405.769C89.5719 405.778 89.4506 405.792 89.3386 405.811C89.2359 405.829 89.1612 405.843 89.1146 405.853V411.999H87.8126V404.929ZM101.256 406.259C101.097 406.128 100.868 406.002 100.57 405.881C100.271 405.759 99.9443 405.699 99.5896 405.699C99.2163 405.699 98.8943 405.769 98.6236 405.909C98.3623 406.039 98.1476 406.226 97.9796 406.469C97.8116 406.702 97.6903 406.982 97.6156 407.309C97.541 407.635 97.5036 407.985 97.5036 408.359C97.5036 409.208 97.7136 409.866 98.1336 410.333C98.5536 410.79 99.1136 411.019 99.8136 411.019C100.168 411.019 100.462 411.005 100.696 410.977C100.938 410.939 101.125 410.902 101.256 410.865V406.259ZM101.256 401.359L102.558 401.135V411.789C102.259 411.873 101.876 411.957 101.41 412.041C100.943 412.125 100.406 412.167 99.7996 412.167C99.2396 412.167 98.7356 412.078 98.2876 411.901C97.8396 411.723 97.457 411.471 97.1396 411.145C96.8223 410.818 96.575 410.421 96.3976 409.955C96.2296 409.479 96.1456 408.947 96.1456 408.359C96.1456 407.799 96.2156 407.285 96.3556 406.819C96.505 406.352 96.7196 405.951 96.9996 405.615C97.2796 405.279 97.6203 405.017 98.0216 404.831C98.4323 404.644 98.899 404.551 99.4216 404.551C99.8416 404.551 100.21 404.607 100.528 404.719C100.854 404.831 101.097 404.938 101.256 405.041V401.359ZM105.09 408.373C105.09 407.729 105.183 407.169 105.37 406.693C105.556 406.207 105.804 405.806 106.112 405.489C106.42 405.171 106.774 404.933 107.176 404.775C107.577 404.616 107.988 404.537 108.408 404.537C109.388 404.537 110.139 404.845 110.662 405.461C111.184 406.067 111.446 406.996 111.446 408.247C111.446 408.303 111.446 408.377 111.446 408.471C111.446 408.555 111.441 408.634 111.432 408.709H106.448C106.504 409.465 106.723 410.039 107.106 410.431C107.488 410.823 108.086 411.019 108.898 411.019C109.355 411.019 109.738 410.981 110.046 410.907C110.363 410.823 110.601 410.743 110.76 410.669L110.942 411.761C110.783 411.845 110.503 411.933 110.102 412.027C109.71 412.12 109.262 412.167 108.758 412.167C108.123 412.167 107.572 412.073 107.106 411.887C106.648 411.691 106.27 411.425 105.972 411.089C105.673 410.753 105.449 410.356 105.3 409.899C105.16 409.432 105.09 408.923 105.09 408.373ZM110.088 407.659C110.097 407.071 109.948 406.59 109.64 406.217C109.341 405.834 108.926 405.643 108.394 405.643C108.095 405.643 107.829 405.703 107.596 405.825C107.372 405.937 107.18 406.086 107.022 406.273C106.863 406.459 106.737 406.674 106.644 406.917C106.56 407.159 106.504 407.407 106.476 407.659H110.088ZM116.704 404.565C116.816 404.565 116.942 404.574 117.082 404.593C117.231 404.602 117.376 404.621 117.516 404.649C117.656 404.667 117.782 404.691 117.894 404.719C118.015 404.737 118.104 404.756 118.16 404.775L117.936 405.909C117.833 405.871 117.661 405.829 117.418 405.783C117.185 405.727 116.881 405.699 116.508 405.699C116.265 405.699 116.023 405.727 115.78 405.783C115.547 405.829 115.393 405.862 115.318 405.881V411.999H114.016V405.027C114.324 404.915 114.707 404.812 115.164 404.719C115.621 404.616 116.135 404.565 116.704 404.565ZM124.281 401.037H125.499V414.589H124.281V401.037ZM136.863 412.209C136.182 412.209 135.561 412.097 135.001 411.873C134.441 411.649 133.96 411.322 133.559 410.893C133.158 410.463 132.845 409.936 132.621 409.311C132.406 408.676 132.299 407.953 132.299 407.141C132.299 406.329 132.42 405.61 132.663 404.985C132.915 404.35 133.251 403.818 133.671 403.389C134.091 402.959 134.581 402.633 135.141 402.409C135.701 402.185 136.298 402.073 136.933 402.073C137.334 402.073 137.694 402.101 138.011 402.157C138.338 402.213 138.618 402.278 138.851 402.353C139.094 402.427 139.29 402.502 139.439 402.577C139.588 402.651 139.691 402.707 139.747 402.745L139.355 403.865C139.271 403.809 139.15 403.748 138.991 403.683C138.832 403.617 138.65 403.552 138.445 403.487C138.249 403.421 138.03 403.37 137.787 403.333C137.554 403.286 137.316 403.263 137.073 403.263C136.56 403.263 136.098 403.351 135.687 403.529C135.276 403.706 134.926 403.963 134.637 404.299C134.348 404.635 134.124 405.045 133.965 405.531C133.816 406.007 133.741 406.543 133.741 407.141C133.741 407.719 133.806 408.247 133.937 408.723C134.077 409.199 134.282 409.609 134.553 409.955C134.824 410.291 135.16 410.552 135.561 410.739C135.972 410.925 136.448 411.019 136.989 411.019C137.614 411.019 138.132 410.953 138.543 410.823C138.954 410.692 139.262 410.575 139.467 410.473L139.817 411.593C139.752 411.639 139.635 411.7 139.467 411.775C139.299 411.84 139.089 411.905 138.837 411.971C138.585 412.036 138.291 412.092 137.955 412.139C137.619 412.185 137.255 412.209 136.863 412.209ZM141.989 411.999V401.359L143.291 401.135V404.859C143.533 404.765 143.79 404.695 144.061 404.649C144.341 404.593 144.616 404.565 144.887 404.565C145.465 404.565 145.946 404.649 146.329 404.817C146.711 404.975 147.015 405.204 147.239 405.503C147.472 405.792 147.635 406.142 147.729 406.553C147.822 406.963 147.869 407.416 147.869 407.911V411.999H146.567V408.191C146.567 407.743 146.534 407.36 146.469 407.043C146.413 406.725 146.315 406.469 146.175 406.273C146.035 406.077 145.848 405.937 145.615 405.853C145.381 405.759 145.092 405.713 144.747 405.713C144.607 405.713 144.462 405.722 144.313 405.741C144.163 405.759 144.019 405.783 143.879 405.811C143.748 405.829 143.627 405.853 143.515 405.881C143.412 405.909 143.337 405.932 143.291 405.951V411.999H141.989ZM151.989 411.999H150.687V404.719H151.989V411.999ZM151.331 403.403C151.097 403.403 150.897 403.328 150.729 403.179C150.57 403.02 150.491 402.81 150.491 402.549C150.491 402.287 150.57 402.082 150.729 401.933C150.897 401.774 151.097 401.695 151.331 401.695C151.564 401.695 151.76 401.774 151.919 401.933C152.087 402.082 152.171 402.287 152.171 402.549C152.171 402.81 152.087 403.02 151.919 403.179C151.76 403.328 151.564 403.403 151.331 403.403ZM154.522 408.373C154.522 407.729 154.615 407.169 154.802 406.693C154.988 406.207 155.236 405.806 155.544 405.489C155.852 405.171 156.206 404.933 156.608 404.775C157.009 404.616 157.42 404.537 157.84 404.537C158.82 404.537 159.571 404.845 160.094 405.461C160.616 406.067 160.878 406.996 160.878 408.247C160.878 408.303 160.878 408.377 160.878 408.471C160.878 408.555 160.873 408.634 160.864 408.709H155.88C155.936 409.465 156.155 410.039 156.538 410.431C156.92 410.823 157.518 411.019 158.33 411.019C158.787 411.019 159.17 410.981 159.478 410.907C159.795 410.823 160.033 410.743 160.192 410.669L160.374 411.761C160.215 411.845 159.935 411.933 159.534 412.027C159.142 412.12 158.694 412.167 158.19 412.167C157.555 412.167 157.004 412.073 156.538 411.887C156.08 411.691 155.702 411.425 155.404 411.089C155.105 410.753 154.881 410.356 154.732 409.899C154.592 409.432 154.522 408.923 154.522 408.373ZM159.52 407.659C159.529 407.071 159.38 406.59 159.072 406.217C158.773 405.834 158.358 405.643 157.826 405.643C157.527 405.643 157.261 405.703 157.028 405.825C156.804 405.937 156.612 406.086 156.454 406.273C156.295 406.459 156.169 406.674 156.076 406.917C155.992 407.159 155.936 407.407 155.908 407.659H159.52ZM166.29 401.135C166.673 401.135 166.999 401.163 167.27 401.219C167.55 401.275 167.746 401.326 167.858 401.373L167.62 402.493C167.508 402.437 167.349 402.385 167.144 402.339C166.939 402.283 166.687 402.255 166.388 402.255C165.781 402.255 165.357 402.423 165.114 402.759C164.871 403.085 164.75 403.529 164.75 404.089V404.719H167.55V405.811H164.75V411.999H163.448V404.061C163.448 403.127 163.677 402.409 164.134 401.905C164.591 401.391 165.31 401.135 166.29 401.135ZM181.539 407.141C181.539 407.981 181.408 408.713 181.147 409.339C180.885 409.955 180.517 410.468 180.041 410.879C179.565 411.28 178.995 411.583 178.333 411.789C177.67 411.985 176.942 412.083 176.149 412.083C175.757 412.083 175.323 412.064 174.847 412.027C174.38 411.999 173.955 411.938 173.573 411.845V402.437C173.955 402.343 174.38 402.283 174.847 402.255C175.323 402.217 175.757 402.199 176.149 402.199C176.942 402.199 177.67 402.301 178.333 402.507C178.995 402.703 179.565 403.006 180.041 403.417C180.517 403.818 180.885 404.331 181.147 404.957C181.408 405.573 181.539 406.301 181.539 407.141ZM176.261 410.893C177.549 410.893 178.51 410.566 179.145 409.913C179.779 409.25 180.097 408.326 180.097 407.141C180.097 405.955 179.779 405.036 179.145 404.383C178.51 403.72 177.549 403.389 176.261 403.389C175.878 403.389 175.579 403.393 175.365 403.403C175.159 403.412 175.015 403.421 174.931 403.431V410.851C175.015 410.86 175.159 410.869 175.365 410.879C175.579 410.888 175.878 410.893 176.261 410.893ZM183.763 408.373C183.763 407.729 183.857 407.169 184.043 406.693C184.23 406.207 184.477 405.806 184.785 405.489C185.093 405.171 185.448 404.933 185.849 404.775C186.251 404.616 186.661 404.537 187.081 404.537C188.061 404.537 188.813 404.845 189.335 405.461C189.858 406.067 190.119 406.996 190.119 408.247C190.119 408.303 190.119 408.377 190.119 408.471C190.119 408.555 190.115 408.634 190.105 408.709H185.121C185.177 409.465 185.397 410.039 185.779 410.431C186.162 410.823 186.759 411.019 187.571 411.019C188.029 411.019 188.411 410.981 188.719 410.907C189.037 410.823 189.275 410.743 189.433 410.669L189.615 411.761C189.457 411.845 189.177 411.933 188.775 412.027C188.383 412.12 187.935 412.167 187.431 412.167C186.797 412.167 186.246 412.073 185.779 411.887C185.322 411.691 184.944 411.425 184.645 411.089C184.347 410.753 184.123 410.356 183.973 409.899C183.833 409.432 183.763 408.923 183.763 408.373ZM188.761 407.659C188.771 407.071 188.621 406.59 188.313 406.217C188.015 405.834 187.599 405.643 187.067 405.643C186.769 405.643 186.503 405.703 186.269 405.825C186.045 405.937 185.854 406.086 185.695 406.273C185.537 406.459 185.411 406.674 185.317 406.917C185.233 407.159 185.177 407.407 185.149 407.659H188.761ZM194.384 411.061C194.916 411.061 195.308 410.991 195.56 410.851C195.821 410.711 195.952 410.487 195.952 410.179C195.952 409.861 195.826 409.609 195.574 409.423C195.322 409.236 194.906 409.026 194.328 408.793C194.048 408.681 193.777 408.569 193.516 408.457C193.264 408.335 193.044 408.195 192.858 408.037C192.671 407.878 192.522 407.687 192.41 407.463C192.298 407.239 192.242 406.963 192.242 406.637C192.242 405.993 192.48 405.484 192.956 405.111C193.432 404.728 194.08 404.537 194.902 404.537C195.107 404.537 195.312 404.551 195.518 404.579C195.723 404.597 195.914 404.625 196.092 404.663C196.269 404.691 196.423 404.723 196.554 404.761C196.694 404.798 196.801 404.831 196.876 404.859L196.638 405.979C196.498 405.904 196.278 405.829 195.98 405.755C195.681 405.671 195.322 405.629 194.902 405.629C194.538 405.629 194.22 405.703 193.95 405.853C193.679 405.993 193.544 406.217 193.544 406.525C193.544 406.683 193.572 406.823 193.628 406.945C193.693 407.066 193.786 407.178 193.908 407.281C194.038 407.374 194.197 407.463 194.384 407.547C194.57 407.631 194.794 407.719 195.056 407.813C195.401 407.943 195.709 408.074 195.98 408.205C196.25 408.326 196.479 408.471 196.666 408.639C196.862 408.807 197.011 409.012 197.114 409.255C197.216 409.488 197.268 409.777 197.268 410.123C197.268 410.795 197.016 411.303 196.512 411.649C196.017 411.994 195.308 412.167 194.384 412.167C193.74 412.167 193.236 412.111 192.872 411.999C192.508 411.896 192.26 411.817 192.13 411.761L192.368 410.641C192.517 410.697 192.755 410.781 193.082 410.893C193.408 411.005 193.842 411.061 194.384 411.061ZM200.94 411.999H199.638V404.719H200.94V411.999ZM200.282 403.403C200.048 403.403 199.848 403.328 199.68 403.179C199.521 403.02 199.442 402.81 199.442 402.549C199.442 402.287 199.521 402.082 199.68 401.933C199.848 401.774 200.048 401.695 200.282 401.695C200.515 401.695 200.711 401.774 200.87 401.933C201.038 402.082 201.122 402.287 201.122 402.549C201.122 402.81 201.038 403.02 200.87 403.179C200.711 403.328 200.515 403.403 200.282 403.403ZM208.443 411.271C208.331 411.345 208.111 411.443 207.785 411.565C207.467 411.677 207.094 411.733 206.665 411.733C206.226 411.733 205.811 411.663 205.419 411.523C205.036 411.383 204.7 411.168 204.411 410.879C204.121 410.58 203.893 410.211 203.725 409.773C203.557 409.334 203.473 408.811 203.473 408.205C203.473 407.673 203.552 407.187 203.711 406.749C203.869 406.301 204.098 405.918 204.397 405.601C204.705 405.274 205.078 405.022 205.517 404.845C205.955 404.658 206.45 404.565 207.001 404.565C207.607 404.565 208.135 404.611 208.583 404.705C209.04 404.789 209.423 404.868 209.731 404.943V411.439C209.731 412.559 209.441 413.371 208.863 413.875C208.284 414.379 207.407 414.631 206.231 414.631C205.773 414.631 205.339 414.593 204.929 414.519C204.527 414.444 204.177 414.355 203.879 414.253L204.117 413.119C204.378 413.221 204.695 413.31 205.069 413.385C205.451 413.469 205.848 413.511 206.259 413.511C207.033 413.511 207.589 413.357 207.925 413.049C208.27 412.741 208.443 412.251 208.443 411.579V411.271ZM208.429 405.867C208.298 405.829 208.121 405.797 207.897 405.769C207.682 405.731 207.388 405.713 207.015 405.713C206.315 405.713 205.773 405.941 205.391 406.399C205.017 406.856 204.831 407.463 204.831 408.219C204.831 408.639 204.882 408.998 204.985 409.297C205.097 409.595 205.241 409.843 205.419 410.039C205.605 410.235 205.815 410.379 206.049 410.473C206.291 410.566 206.539 410.613 206.791 410.613C207.136 410.613 207.453 410.566 207.743 410.473C208.032 410.37 208.261 410.253 208.429 410.123V405.867ZM212.672 404.929C212.971 404.854 213.368 404.775 213.862 404.691C214.357 404.607 214.926 404.565 215.57 404.565C216.149 404.565 216.63 404.649 217.012 404.817C217.395 404.975 217.698 405.204 217.922 405.503C218.156 405.792 218.319 406.142 218.412 406.553C218.506 406.963 218.552 407.416 218.552 407.911V411.999H217.25V408.191C217.25 407.743 217.218 407.36 217.152 407.043C217.096 406.725 216.998 406.469 216.858 406.273C216.718 406.077 216.532 405.937 216.298 405.853C216.065 405.759 215.776 405.713 215.43 405.713C215.29 405.713 215.146 405.717 214.996 405.727C214.847 405.736 214.702 405.75 214.562 405.769C214.432 405.778 214.31 405.792 214.198 405.811C214.096 405.829 214.021 405.843 213.974 405.853V411.999H212.672V404.929ZM225.044 407.141C225.044 406.31 225.165 405.577 225.408 404.943C225.66 404.308 225.996 403.781 226.416 403.361C226.845 402.931 227.34 402.609 227.9 402.395C228.469 402.18 229.071 402.073 229.706 402.073C230.331 402.073 230.919 402.18 231.47 402.395C232.03 402.609 232.52 402.931 232.94 403.361C233.36 403.781 233.691 404.308 233.934 404.943C234.186 405.577 234.312 406.31 234.312 407.141C234.312 407.971 234.186 408.704 233.934 409.339C233.691 409.973 233.36 410.505 232.94 410.935C232.52 411.355 232.03 411.672 231.47 411.887C230.919 412.101 230.331 412.209 229.706 412.209C229.071 412.209 228.469 412.101 227.9 411.887C227.34 411.672 226.845 411.355 226.416 410.935C225.996 410.505 225.66 409.973 225.408 409.339C225.165 408.704 225.044 407.971 225.044 407.141ZM226.472 407.141C226.472 407.729 226.546 408.265 226.696 408.751C226.845 409.227 227.055 409.633 227.326 409.969C227.606 410.305 227.942 410.566 228.334 410.753C228.735 410.93 229.183 411.019 229.678 411.019C230.172 411.019 230.616 410.93 231.008 410.753C231.4 410.566 231.731 410.305 232.002 409.969C232.282 409.633 232.496 409.227 232.646 408.751C232.795 408.265 232.87 407.729 232.87 407.141C232.87 406.553 232.795 406.021 232.646 405.545C232.496 405.059 232.282 404.649 232.002 404.313C231.731 403.977 231.4 403.72 231.008 403.543C230.616 403.356 230.172 403.263 229.678 403.263C229.183 403.263 228.735 403.356 228.334 403.543C227.942 403.72 227.606 403.977 227.326 404.313C227.055 404.649 226.845 405.059 226.696 405.545C226.546 406.021 226.472 406.553 226.472 407.141ZM239.79 401.135C240.173 401.135 240.499 401.163 240.77 401.219C241.05 401.275 241.246 401.326 241.358 401.373L241.12 402.493C241.008 402.437 240.849 402.385 240.644 402.339C240.439 402.283 240.187 402.255 239.888 402.255C239.281 402.255 238.857 402.423 238.614 402.759C238.371 403.085 238.25 403.529 238.25 404.089V404.719H241.05V405.811H238.25V411.999H236.948V404.061C236.948 403.127 237.177 402.409 237.634 401.905C238.091 401.391 238.81 401.135 239.79 401.135ZM245.25 401.135C245.577 401.135 245.857 401.158 246.09 401.205C246.323 401.242 246.491 401.279 246.594 401.317L246.412 402.437C246.309 402.399 246.169 402.362 245.992 402.325C245.815 402.278 245.6 402.255 245.348 402.255C244.741 402.255 244.317 402.423 244.074 402.759C243.831 403.085 243.71 403.529 243.71 404.089V404.719H246.51V405.811H243.71V411.999H242.408V404.061C242.408 403.127 242.637 402.409 243.094 401.905C243.551 401.391 244.27 401.135 245.25 401.135ZM249.17 411.999H247.868V404.719H249.17V411.999ZM248.512 403.403C248.279 403.403 248.078 403.328 247.91 403.179C247.751 403.02 247.672 402.81 247.672 402.549C247.672 402.287 247.751 402.082 247.91 401.933C248.078 401.774 248.279 401.695 248.512 401.695C248.745 401.695 248.941 401.774 249.1 401.933C249.268 402.082 249.352 402.287 249.352 402.549C249.352 402.81 249.268 403.02 249.1 403.179C248.941 403.328 248.745 403.403 248.512 403.403ZM255.277 412.167C254.689 412.167 254.171 412.073 253.723 411.887C253.284 411.7 252.911 411.439 252.603 411.103C252.304 410.767 252.08 410.37 251.931 409.913C251.782 409.446 251.707 408.933 251.707 408.373C251.707 407.813 251.786 407.299 251.945 406.833C252.113 406.366 252.346 405.965 252.645 405.629C252.944 405.283 253.308 405.017 253.737 404.831C254.176 404.635 254.661 404.537 255.193 404.537C255.52 404.537 255.846 404.565 256.173 404.621C256.5 404.677 256.812 404.765 257.111 404.887L256.817 405.993C256.621 405.899 256.392 405.825 256.131 405.769C255.879 405.713 255.608 405.685 255.319 405.685C254.591 405.685 254.031 405.913 253.639 406.371C253.256 406.828 253.065 407.495 253.065 408.373C253.065 408.765 253.107 409.124 253.191 409.451C253.284 409.777 253.424 410.057 253.611 410.291C253.807 410.524 254.054 410.706 254.353 410.837C254.652 410.958 255.016 411.019 255.445 411.019C255.79 411.019 256.103 410.986 256.383 410.921C256.663 410.855 256.882 410.785 257.041 410.711L257.223 411.803C257.148 411.849 257.041 411.896 256.901 411.943C256.761 411.98 256.602 412.013 256.425 412.041C256.248 412.078 256.056 412.106 255.851 412.125C255.655 412.153 255.464 412.167 255.277 412.167ZM258.915 408.373C258.915 407.729 259.008 407.169 259.195 406.693C259.381 406.207 259.629 405.806 259.937 405.489C260.245 405.171 260.599 404.933 261.001 404.775C261.402 404.616 261.813 404.537 262.233 404.537C263.213 404.537 263.964 404.845 264.487 405.461C265.009 406.067 265.271 406.996 265.271 408.247C265.271 408.303 265.271 408.377 265.271 408.471C265.271 408.555 265.266 408.634 265.257 408.709H260.273C260.329 409.465 260.548 410.039 260.931 410.431C261.313 410.823 261.911 411.019 262.723 411.019C263.18 411.019 263.563 410.981 263.871 410.907C264.188 410.823 264.426 410.743 264.585 410.669L264.767 411.761C264.608 411.845 264.328 411.933 263.927 412.027C263.535 412.12 263.087 412.167 262.583 412.167C261.948 412.167 261.397 412.073 260.931 411.887C260.473 411.691 260.095 411.425 259.797 411.089C259.498 410.753 259.274 410.356 259.125 409.899C258.985 409.432 258.915 408.923 258.915 408.373ZM263.913 407.659C263.922 407.071 263.773 406.59 263.465 406.217C263.166 405.834 262.751 405.643 262.219 405.643C261.92 405.643 261.654 405.703 261.421 405.825C261.197 405.937 261.005 406.086 260.847 406.273C260.688 406.459 260.562 406.674 260.469 406.917C260.385 407.159 260.329 407.407 260.301 407.659H263.913ZM270.529 404.565C270.641 404.565 270.767 404.574 270.907 404.593C271.056 404.602 271.201 404.621 271.341 404.649C271.481 404.667 271.607 404.691 271.719 404.719C271.84 404.737 271.929 404.756 271.985 404.775L271.761 405.909C271.658 405.871 271.486 405.829 271.243 405.783C271.01 405.727 270.706 405.699 270.333 405.699C270.09 405.699 269.848 405.727 269.605 405.783C269.372 405.829 269.218 405.862 269.143 405.881V411.999H267.841V405.027C268.149 404.915 268.532 404.812 268.989 404.719C269.446 404.616 269.96 404.565 270.529 404.565Z" fill="#29695D"/>
</svg>
