<svg width="220" height="220" viewBox="0 0 220 220" fill="none" xmlns="http://www.w3.org/2000/svg">
<g clip-path="url(#clip0_83_149)">
<path d="M69.3 0C70.0016 0.299444 70.7312 0.545111 71.3973 0.908111C73.3174 1.95556 73.601 3.76933 73.5998 5.72367C73.5949 17.6794 73.6034 29.6352 73.6071 41.591C73.6096 50.4778 73.5326 59.3658 73.6609 68.2501C73.7024 71.1541 71.2837 73.6731 68.2648 73.6609C47.6972 73.5778 27.1297 73.59 6.56211 73.6108C3.24744 73.6157 1.32978 73.4653 0 69.3C0 67.925 0 66.55 0 65.175C0.0513333 64.5883 0.145444 64.0029 0.145444 63.4162C0.161333 52.7621 0.171111 42.1092 0.165 31.4551C0.165 30.4113 0.0574444 29.3688 0 28.325C0 20.1667 0 12.0083 0 3.85C0.671 1.95433 2.01544 0.732111 3.85 0C25.6667 0 47.4833 0 69.3 0ZM62.8381 36.707C62.8528 36.707 62.8687 36.707 62.8833 36.707C62.8833 29.0094 62.8907 21.3119 62.8785 13.6143C62.8748 11.176 62.3028 10.5881 59.9011 10.5857C44.4143 10.5698 28.9276 10.5661 13.4396 10.5661C11.5231 10.5661 10.5637 11.5146 10.5637 13.4261C10.5624 28.8212 10.5649 44.2163 10.5869 59.6114C10.5906 62.4018 11.0208 62.8186 13.7488 62.8222C29.0522 62.843 44.3557 62.8589 59.6603 62.8638C62.6401 62.8638 62.8357 62.6487 62.8369 59.664C62.8406 52.0117 62.8381 44.3606 62.8381 36.7082V36.707Z" fill="black"/>
<path d="M220 70.675C218.542 73.1231 216.339 73.6206 213.613 73.6108C193.634 73.535 173.655 73.5888 153.675 73.601C153.125 73.601 152.571 73.5558 152.026 73.6096C148.927 73.9102 146.615 71.2666 146.646 68.2648C146.735 59.5589 146.676 50.8518 146.678 42.1459C146.678 30.1852 146.742 18.2246 146.64 6.26633C146.613 3.12033 147.572 0.941111 150.701 0H215.601C217.59 0.404556 219.25 1.24667 220.001 3.3V70.675H220ZM157.299 36.7143C157.299 44.1821 157.299 51.6511 157.299 59.1189C157.299 62.711 157.445 62.8699 161.086 62.8723C176.115 62.8833 191.143 62.8858 206.171 62.8846C206.717 62.8846 207.262 62.7819 207.81 62.7709C209.017 62.7452 209.494 62.0119 209.614 60.94C209.669 60.4413 209.689 59.9353 209.691 59.433C209.7 44.1296 209.705 28.8273 209.709 13.5239C209.709 11.5537 208.84 10.6028 206.909 10.5991C191.285 10.5759 175.661 10.5661 160.038 10.5722C158.096 10.5722 157.302 11.4302 157.302 13.3479C157.3 21.1371 157.302 28.9263 157.301 36.7143H157.299Z" fill="black"/>
<path d="M0 150.425C0.213889 149.99 0.404556 149.541 0.644111 149.121C1.62678 147.401 3.168 146.686 5.09422 146.685C26.1629 146.675 47.2316 146.685 68.3002 146.635C71.2922 146.628 73.6597 148.922 73.6487 151.915C73.5778 172.434 73.5631 192.952 73.6242 213.472C73.6328 216.211 73.3064 218.566 70.6738 220.001H3.025C1.35789 219.108 0.429 217.674 0 215.875V203.775C0 202.675 0 201.575 0 200.475C0.0525556 199.797 0.149111 199.12 0.150333 198.441C0.161333 191.272 0.161333 184.102 0.150333 176.933C0.149111 176.164 0.0537778 175.395 0.00122222 174.625C0.00122222 166.558 0.00122222 158.492 0.00122222 150.425H0ZM36.916 157.298C29.2649 157.298 21.6126 157.298 13.9614 157.298C11.1418 157.298 10.5612 157.817 10.5612 160.646C10.5637 175.857 10.6358 191.068 10.5624 206.277C10.5514 208.529 11.5476 209.764 14.1326 209.752C29.2062 209.681 44.2811 209.716 59.3548 209.715C62.3883 209.715 62.8626 209.244 62.8638 206.248C62.8674 191.219 62.8711 176.191 62.8687 161.162C62.8687 160.568 62.8491 159.971 62.7782 159.383C62.5668 157.625 62.1916 157.304 60.4206 157.304C52.5861 157.302 44.7504 157.304 36.916 157.299V157.298Z" fill="black"/>
<path d="M220 175.45C219.372 176.123 218.843 176.957 218.087 177.425C217.353 177.881 216.39 178.157 215.521 178.174C211.628 178.251 207.729 178.125 203.837 178.237C201.516 178.303 198.753 176.073 199.082 173.377C199.209 172.338 199.019 171.264 199.122 170.22C199.258 168.849 198.644 168.157 197.372 167.947C196.834 167.857 196.283 167.816 195.738 167.816C184.603 167.795 173.469 167.741 162.336 167.815C160.543 167.827 159.232 167.152 158.116 165.984C157.661 165.506 157.469 164.703 157.333 164.014C157.203 163.351 157.304 162.645 157.305 161.957C157.309 159.043 159.022 157.308 161.894 157.308C169.913 157.308 177.932 157.288 185.95 157.329C187.618 157.338 188.354 156.92 188.593 154.917C188.817 153.018 188.701 151.071 188.624 149.15C188.562 147.583 187.886 146.873 186.345 146.827C183.37 146.736 180.391 146.747 177.415 146.745C172.421 146.741 167.426 146.764 162.432 146.764C160.404 146.764 158.699 146.227 157.618 144.27C155.651 140.709 158.003 136.355 162.02 136.345C172.787 136.317 183.553 136.323 194.321 136.341C197.545 136.346 199.098 137.942 199.098 141.134C199.098 142.234 199.1 143.334 199.098 144.432C199.095 145.586 199.582 146.405 200.779 146.532C202.049 146.667 203.341 146.788 204.609 146.702C207.594 146.503 209.87 149.131 209.802 151.939C209.698 156.197 209.78 160.461 209.79 164.722C209.796 167.224 210.338 167.729 212.845 167.784C214.251 167.815 215.656 167.931 217.057 168.065C218.317 168.186 219.038 169.005 219.514 170.112C219.586 170.281 219.831 170.375 219.996 170.504V175.454L220 175.45Z" fill="black"/>
<path d="M117.975 220C117.91 219.884 117.875 219.707 117.776 219.659C114.593 218.119 115.555 215.205 115.554 212.686C115.554 211.321 117.44 209.93 119.126 209.821C120.449 209.736 121.78 209.782 123.107 209.753C124.81 209.714 125.842 208.719 125.879 207.018C125.916 205.325 125.913 203.63 125.879 201.936C125.84 199.991 124.914 199.107 122.989 199.101C121.89 199.098 120.791 199.101 119.692 199.096C117.282 199.084 115.507 197.335 115.502 194.968C115.501 194.327 115.502 193.686 115.505 193.045C115.512 190.376 117.234 188.66 119.953 188.652C123.844 188.641 127.738 188.717 131.627 188.632C134.143 188.575 136.263 190.562 136.351 193.275C136.388 194.419 136.339 195.565 136.383 196.708C136.446 198.367 137.219 199.102 138.827 199.107C139.973 199.111 141.117 199.106 142.262 199.11C144.514 199.116 146.298 200.451 146.531 202.671C146.694 204.219 146.738 205.948 146.2 207.354C145.611 208.892 144.027 209.72 142.254 209.775C141.11 209.81 139.965 209.755 138.821 209.786C137.064 209.831 136.432 210.457 136.372 212.191C136.338 213.197 136.35 214.205 136.345 215.213C136.336 217.047 135.733 218.558 134.056 219.511C133.883 219.609 133.783 219.835 133.649 220.001H117.974L117.975 220Z" fill="black"/>
<path d="M132.275 0C135.923 1.18067 136.409 2.99689 136.361 6.26267C136.313 9.55778 136.471 12.8614 136.289 16.148C136.218 17.4289 135.719 18.8528 134.972 19.8953C133.662 21.725 127.985 21.3266 126.792 19.4016C126.313 18.6279 125.987 17.6269 125.968 16.7212C125.886 12.6023 125.871 8.47978 125.979 4.36211C126.018 2.89178 126.33 1.36278 128.105 0.782222C128.608 0.617222 129.052 0.266444 129.523 0C130.439 0 131.356 0 132.273 0L132.275 0Z" fill="black"/>
<path d="M0 106.15C0.900778 104.836 2.18533 104.653 3.66667 104.758C5.21522 104.867 6.77722 104.771 8.33311 104.785C9.76311 104.797 10.4268 105.292 10.4842 106.689C10.5796 108.972 10.5869 111.265 10.505 113.549C10.4524 115.029 9.82178 115.495 8.283 115.502C6.63544 115.51 4.97811 115.394 3.34278 115.531C1.81133 115.658 0.689333 115.26 0 113.85V106.15Z" fill="black"/>
<path d="M199.925 220C199.187 219.115 199.035 218.098 199.085 216.966C199.161 215.233 199.175 213.49 199.088 211.759C199.022 210.454 199.659 209.846 200.81 209.813C203.183 209.744 205.562 209.75 207.935 209.809C209.181 209.84 209.796 210.601 209.791 211.858C209.782 213.913 209.871 215.976 209.736 218.024C209.691 218.702 209.079 219.342 208.726 220H199.926H199.925Z" fill="black"/>
<path d="M147.675 220C146.857 219.16 146.602 218.161 146.651 216.995C146.723 215.304 146.645 213.606 146.676 211.914C146.706 210.387 147.202 209.83 148.735 209.786C150.93 209.722 153.131 209.723 155.326 209.787C156.965 209.835 157.294 210.248 157.299 211.884C157.304 213.67 157.256 215.457 157.317 217.24C157.353 218.283 157.236 219.225 156.476 220H147.676H147.675Z" fill="black"/>
<path d="M0 84.975C1.166 83.8665 2.60578 83.853 4.08711 83.9019C5.55011 83.9496 7.018 83.8799 8.481 83.9215C9.80589 83.9581 10.4952 84.6377 10.5172 85.943C10.5527 88.0941 10.5563 90.2465 10.5233 92.3964C10.5013 93.8105 9.92567 94.3348 8.481 94.347C6.65011 94.3617 4.81189 94.2505 2.98956 94.3825C1.639 94.4803 0.704 94.0403 0 92.95V84.975Z" fill="black"/>
<path d="M220 104.225C219.034 104.41 218.074 104.709 217.101 104.755C215.318 104.841 213.528 104.793 211.741 104.77C210.2 104.749 209.801 104.375 209.77 102.812C209.731 100.751 209.733 98.6884 209.776 96.6265C209.812 94.8714 210.369 94.3593 212.111 94.3507C213.761 94.3422 215.413 94.4155 217.058 94.3263C218.241 94.2627 219.209 94.5475 220 95.425V104.225Z" fill="black"/>
<path d="M84.7 220C83.2321 217.204 84.1146 214.202 83.9984 211.294C83.9618 210.38 84.6707 209.749 85.7511 209.763C88.0391 209.79 90.3271 209.752 92.6151 209.783C93.7652 209.799 94.3543 210.412 94.3433 211.603C94.3238 213.754 94.402 215.908 94.2993 218.054C94.2676 218.714 93.7799 219.352 93.5 220H84.7Z" fill="black"/>
<path d="M220 146.025C218.959 146.265 217.926 146.64 216.874 146.711C215.193 146.824 213.498 146.758 211.81 146.723C210.321 146.692 209.794 146.206 209.768 144.759C209.727 142.615 209.726 140.468 209.78 138.324C209.818 136.842 210.331 136.365 211.796 136.344C213.85 136.316 215.908 136.263 217.955 136.378C218.651 136.417 219.318 136.929 219.999 137.225V146.025H220Z" fill="black"/>
<path d="M114.511 178.215C108.829 178.215 103.146 178.212 97.4637 178.216C95.2991 178.217 94.424 179.048 94.3934 181.159C94.3702 182.763 94.3543 184.367 94.3996 185.97C94.4521 187.838 95.2698 188.615 97.1251 188.646C97.9953 188.661 98.8778 188.742 99.7346 188.632C101.518 188.403 102.925 189.196 103.985 190.403C104.538 191.031 104.725 192.146 104.742 193.048C104.819 197.078 104.788 201.112 104.771 205.145C104.76 207.883 102.835 209.64 100.044 209.804C96.4333 210.017 94.4766 207.687 94.3433 205.101C94.2847 203.958 94.3592 202.809 94.325 201.665C94.2737 199.918 93.423 199.111 91.6728 199.101C90.7109 199.096 89.7478 199.1 88.7859 199.099C85.58 199.093 83.9496 197.46 83.9276 194.196C83.9043 190.76 83.8958 187.323 83.897 183.886C83.8982 176.645 83.9104 169.405 83.9178 162.164C83.9214 159.037 85.6142 157.311 88.6857 157.306C89.7392 157.305 90.794 157.309 91.8476 157.3C93.3374 157.287 94.2492 156.508 94.3055 154.997C94.38 152.984 94.3727 150.964 94.3079 148.95C94.2676 147.682 93.4108 146.892 92.0944 146.813C90.9077 146.742 89.7099 146.83 88.5243 146.745C85.4016 146.52 84.2967 145.435 83.9361 141.992C83.8322 140.994 83.919 139.977 83.9031 138.969C83.8762 137.252 83.0243 136.389 81.2851 136.387C69.9197 136.371 58.5554 136.379 47.19 136.34C46.3503 136.338 45.4874 136.098 44.6771 135.839C42.68 135.201 42.0994 133.561 42.0909 131.705C42.053 124.373 42.1483 117.04 42.0383 109.709C41.9956 106.848 44.1748 104.665 47.0006 104.753C50.8261 104.872 52.4981 106.44 52.5018 110.271C52.5018 111.142 52.4725 112.014 52.5189 112.883C52.6057 114.515 53.6213 115.476 55.2518 115.499C56.3053 115.513 57.3736 115.608 58.4112 115.477C61.1942 115.125 62.9444 117.352 62.9334 119.883C62.9286 120.983 62.9224 122.083 62.9432 123.182C62.975 124.852 63.8794 125.856 65.5698 125.869C70.8852 125.911 76.2019 125.905 81.5173 125.874C82.9865 125.866 83.897 124.756 83.9007 123.111C83.9117 118.62 83.8933 114.129 83.9227 109.638C83.9386 107.162 85.624 105.088 87.7727 104.798C91.1045 104.35 93.357 105.442 94.1258 107.958C94.3213 108.596 94.3433 109.303 94.3494 109.98C94.3873 114.241 94.3898 118.502 94.4216 122.762C94.4387 125.008 95.3663 125.911 97.5981 125.916C98.56 125.918 99.5243 125.885 100.485 125.929C103.229 126.058 104.804 127.607 104.791 130.297C104.752 138.133 104.781 145.97 104.786 153.806C104.787 156.6 105.48 157.298 108.252 157.302C109.031 157.304 109.811 157.302 110.589 157.304C113.623 157.306 115.491 159.179 115.502 162.229C115.506 163.238 115.502 164.246 115.502 165.254C115.505 167.07 116.129 167.733 117.959 167.743C122.358 167.767 126.762 167.887 131.155 167.734C136.143 167.561 137.08 172.082 136.03 175.187C135.333 177.248 133.775 178.2 131.56 178.202C125.878 178.206 120.195 178.204 114.512 178.204V178.211L114.511 178.215Z" fill="black"/>
<path d="M83.9166 52.5483C83.9166 43.7507 83.9141 34.9531 83.9178 26.1568C83.9178 23.9201 84.6511 22.0538 86.9159 21.2667C89.0548 20.5236 91.2597 20.5651 92.9317 22.2445C93.6858 23.001 94.2284 24.3015 94.2688 25.3783C94.4362 29.8161 94.369 34.2626 94.3983 38.7066C94.4154 41.2561 95.2295 42.0665 97.7643 42.0701C102.071 42.0763 106.38 42.1459 110.684 42.0481C113.344 41.9883 115.753 44.3361 115.515 46.8649C115.421 47.8647 115.5 48.8791 115.5 49.8875C115.5 51.6939 116.171 52.4163 117.996 52.4859C119.093 52.5275 120.195 52.4823 121.295 52.4981C123.611 52.5299 125.591 54.0919 125.873 56.3775C126.051 57.8295 126.137 59.3023 125.264 60.742C124.214 62.4727 122.749 62.9481 120.919 62.9261C119.821 62.9127 118.717 62.8785 117.622 62.9543C116.147 63.0557 115.505 63.7866 115.504 65.2447C115.499 70.697 115.499 76.1494 115.504 81.6029C115.504 83.1063 116.191 83.8151 117.746 83.9056C119.29 83.996 120.863 83.9031 122.376 84.1647C125.369 84.6817 126.388 87.4036 125.878 90.5777C125.558 92.5699 124.15 94.3947 121.07 94.3654C117.221 94.3287 113.372 94.3617 109.523 94.347C106.658 94.336 104.792 92.4697 104.779 89.6293C104.775 88.759 104.78 87.8876 104.777 87.0174C104.769 84.6744 104.198 84.0718 101.909 84.0474C98.7947 84.0131 95.6792 83.9948 92.565 83.9753C91.3281 83.9679 90.0888 83.9325 88.8543 83.9826C85.8733 84.1036 83.9019 82.0466 83.9092 78.9421C83.9288 70.1446 83.9166 61.347 83.919 52.5507L83.9166 52.5483ZM99.6502 62.9591V62.9506C98.7812 62.9506 97.9122 62.9433 97.0444 62.9518C95.4788 62.9677 94.4705 63.8611 94.4106 65.4488C94.3409 67.2748 94.3446 69.1069 94.4106 70.9329C94.468 72.5243 95.4189 73.4776 96.9907 73.5118C98.9083 73.5546 100.83 73.502 102.749 73.4519C103.764 73.425 104.543 73.0144 104.576 71.8581C104.643 69.5396 104.763 67.2161 104.687 64.9013C104.641 63.4933 103.666 62.8834 102.258 62.9506C101.392 62.9921 100.522 62.9579 99.6527 62.9579L99.6502 62.9591Z" fill="black"/>
<path d="M173.105 83.9178C180.112 83.9178 187.119 83.8983 194.124 83.93C196.079 83.9386 197.858 84.4544 198.765 86.4344C198.983 86.9098 199.082 87.4794 199.085 88.0061C199.111 92.1275 198.925 96.2598 199.166 100.366C199.308 102.78 197.014 104.847 194.715 104.809C189.449 104.722 184.183 104.795 178.916 104.795C173.238 104.795 167.559 104.769 161.881 104.793C160.033 104.802 158.587 104.175 157.72 102.494C157.503 102.073 157.344 101.574 157.324 101.105C157.271 99.7786 157.306 98.4488 157.301 97.1215C157.294 95.4079 156.376 94.435 154.636 94.3593C153.63 94.3153 152.621 94.3556 151.613 94.3519C148.366 94.3385 146.659 92.4941 146.652 88.9937C146.645 85.9039 148.588 83.919 151.672 83.9141C158.816 83.9031 165.959 83.9105 173.103 83.9105V83.9178H173.105Z" fill="black"/>
<path d="M125.926 110.946C125.926 107.052 126.016 103.156 125.897 99.2652C125.798 96.0141 128.073 94.2969 130.899 94.3335C134.334 94.3787 137.773 94.391 141.207 94.3286C145.694 94.2467 147.164 96.7205 146.722 100.773C146.412 103.608 145.037 104.749 142.175 104.777C141.075 104.787 139.975 104.768 138.876 104.791C137.473 104.821 136.435 105.767 136.399 107.168C136.347 109.137 136.357 111.109 136.411 113.078C136.45 114.517 137.406 115.44 138.863 115.49C140.19 115.537 141.52 115.499 142.848 115.505C144.556 115.513 145.849 116.516 146.397 118.129C147.046 120.042 147.014 122.036 146.169 123.734C145.529 125.021 144.066 125.857 142.438 125.917C141.431 125.954 140.42 125.972 139.414 125.923C137.016 125.809 136.286 126.87 136.316 128.995C136.339 130.604 136.149 132.268 135.731 133.82C135.243 135.635 133.556 136.263 131.911 136.314C127.929 136.439 123.938 136.42 119.955 136.312C117.514 136.246 115.056 134.639 115.485 131.635C115.62 130.691 115.4 129.691 115.576 128.76C115.847 127.32 117.588 126.05 119.26 125.956C120.448 125.889 121.64 125.922 122.832 125.915C124.826 125.901 125.875 124.873 125.879 122.901C125.885 118.915 125.882 114.928 125.882 110.942C125.896 110.942 125.911 110.942 125.926 110.942V110.946Z" fill="black"/>
<path d="M47.4186 83.9117C54.3376 83.9117 61.2578 83.9092 68.1768 83.9117C72.7112 83.9141 75.1569 88.0281 72.996 92.0321C72.0708 93.7469 70.5491 94.3605 68.6669 94.3592C60.9241 94.358 53.1801 94.3812 45.4373 94.3971C42.7839 94.402 42.0738 95.1011 42.0664 97.713C42.064 98.6749 42.0811 99.638 42.064 100.6C42.031 102.458 40.6817 104.26 38.8667 104.566C37.5797 104.782 36.2144 104.857 34.9262 104.682C32.8533 104.4 31.6922 102.849 31.6336 100.639C31.6018 99.4486 31.6421 98.2557 31.6226 97.0652C31.5969 95.447 30.6106 94.4252 28.9752 94.3641C27.8312 94.3214 26.6836 94.3715 25.5383 94.3495C22.8128 94.2994 21.0516 92.3719 20.8914 89.6427C20.647 85.4945 23.3982 83.82 26.6616 83.8762C33.5793 83.9936 40.4996 83.9117 47.4186 83.9117Z" fill="black"/>
<path d="M178.199 188.645C172.792 188.645 167.385 188.646 161.977 188.645C159.979 188.645 158.475 187.845 157.549 186.003C155.701 182.323 158.147 178.217 162.227 178.215C172.904 178.209 183.58 178.211 194.258 178.211C196.28 178.211 198.119 178.883 198.786 180.834C199.406 182.645 199.556 184.686 198.577 186.523C197.609 188.34 195.883 188.664 194.009 188.657C188.739 188.642 183.47 188.651 178.2 188.651V188.646L178.199 188.645Z" fill="black"/>
<path d="M115.34 31.6262C113.371 31.6262 111.393 31.5052 109.437 31.6579C107.157 31.8364 104.703 29.1072 104.751 27.0575C104.842 23.0767 104.732 19.0911 104.792 15.1091C104.837 12.0278 107.562 10.0038 111.351 10.5538C113.56 10.8753 115.757 13.0863 115.521 15.4941C115.401 16.7187 115.479 17.9642 115.504 19.1998C115.526 20.2876 116.083 20.8938 117.204 20.9048C118.256 20.9146 119.315 20.9806 120.362 20.9048C125.137 20.5651 127.012 25.1203 125.519 28.8028C124.837 30.4822 123.432 31.6543 121.384 31.6335C119.37 31.6139 117.355 31.6298 115.341 31.6298V31.6262H115.34Z" fill="black"/>
<path d="M31.6262 125.934C31.6262 127.58 31.5138 129.235 31.6482 130.871C32.0308 135.533 28.0891 136.929 24.783 136.234C22.2787 135.707 20.9195 133.946 20.9171 131.382C20.9147 127.632 20.9098 123.882 20.9208 120.132C20.9293 117.352 22.715 115.533 25.4467 115.496C25.9954 115.489 26.5442 115.487 27.093 115.491C29.9481 115.516 31.625 117.253 31.6213 120.173C31.6189 122.093 31.6213 124.014 31.6213 125.934H31.6274H31.6262Z" fill="black"/>
<path d="M188.791 199.109C190.849 199.109 192.907 199.091 194.964 199.113C197.113 199.137 199.095 201.162 199.099 203.295C199.099 203.889 199.099 204.484 199.099 205.078C199.099 207.777 197.268 209.724 194.552 209.759C190.62 209.812 186.686 209.801 182.753 209.764C180.636 209.744 179.002 208.382 178.396 206.272C177.533 203.267 178.68 200.375 181.166 199.382C181.614 199.204 182.129 199.128 182.616 199.121C184.673 199.093 186.731 199.109 188.789 199.109H188.791Z" fill="black"/>
<path d="M125.801 157.299C123.787 157.299 121.772 157.306 119.758 157.296C117.348 157.285 115.504 155.425 115.502 153.021C115.502 152.426 115.502 151.831 115.502 151.235C115.507 148.653 116.997 146.845 119.588 146.761C123.749 146.626 127.925 146.566 132.079 146.774C135.768 146.959 137.769 151.767 135.725 155.017C134.708 156.633 133.371 157.417 131.43 157.32C129.558 157.225 127.677 157.299 125.801 157.298V157.299Z" fill="black"/>
<path d="M188.723 115.506C190.874 115.506 193.027 115.499 195.178 115.509C197.289 115.518 199.095 117.35 199.099 119.467C199.099 120.108 199.099 120.749 199.099 121.39C199.099 123.92 197.25 125.883 194.684 125.915C190.656 125.966 186.626 125.977 182.599 125.899C180.775 125.863 179.34 124.953 178.657 123.195C177.756 120.881 177.903 118.587 179.486 116.634C179.982 116.022 181.033 115.611 181.858 115.559C184.138 115.414 186.433 115.509 188.722 115.506H188.723Z" fill="black"/>
<path d="M125.93 41.9369C125.93 40.0621 125.941 38.1859 125.928 36.3111C125.905 33.0991 127.687 31.4979 130.608 31.6251C131.292 31.6544 131.982 31.6141 132.664 31.6739C135.211 31.8952 136.289 34.1758 136.33 36.1558C136.413 40.1329 136.394 44.1149 136.334 48.0933C136.297 50.5059 134.207 52.5214 131.785 52.4786C130.629 52.4578 129.461 52.2024 128.327 51.9335C126.399 51.4776 126.051 49.8557 125.965 48.2485C125.851 46.1512 125.937 44.0416 125.937 41.9382H125.93V41.9369Z" fill="black"/>
<path d="M157.299 110.264C157.299 111.362 157.299 112.458 157.299 113.555C157.299 114.796 156.574 115.433 155.436 115.467C153.198 115.535 150.957 115.515 148.716 115.479C147.433 115.458 146.782 114.596 146.729 113.448C146.63 111.258 146.62 109.059 146.712 106.869C146.772 105.447 147.614 104.801 149.084 104.791C151.096 104.776 153.108 104.769 155.118 104.791C156.591 104.808 157.282 105.518 157.298 106.971C157.309 108.069 157.3 109.165 157.299 110.263V110.264Z" fill="black"/>
<path d="M68.2684 115.493C67.2161 115.493 66.1638 115.515 65.1114 115.488C63.7584 115.452 62.9493 114.74 62.9065 113.394C62.8369 111.247 62.832 109.093 62.8809 106.944C62.9114 105.574 63.6875 104.823 65.0357 104.797C67.1391 104.757 69.245 104.776 71.3484 104.793C72.5609 104.803 73.4507 105.378 73.5069 106.622C73.6132 108.948 73.6499 111.285 73.5472 113.609C73.4959 114.779 72.6904 115.493 71.4254 115.493C70.3731 115.493 69.3208 115.493 68.2684 115.493Z" fill="black"/>
<path d="M204.446 104.786C205.408 104.786 206.37 104.768 207.33 104.79C208.895 104.825 209.706 105.583 209.743 107.15C209.791 109.163 209.798 111.179 209.747 113.192C209.709 114.693 208.905 115.462 207.417 115.485C205.358 115.516 203.296 115.52 201.236 115.48C199.869 115.455 199.123 114.686 199.111 113.338C199.09 111.187 199.088 109.034 199.113 106.882C199.128 105.6 199.861 104.848 201.15 104.796C202.247 104.752 203.347 104.786 204.446 104.785V104.786Z" fill="black"/>
<path d="M110.204 115.502C111.348 115.502 112.495 115.546 113.636 115.49C114.875 115.429 115.441 116.121 115.474 117.198C115.545 119.438 115.534 121.683 115.48 123.924C115.452 125.098 114.554 125.896 113.29 125.921C111.186 125.96 109.08 125.961 106.975 125.916C105.59 125.886 104.803 125.053 104.785 123.647C104.757 121.588 104.758 119.528 104.784 117.469C104.802 116.024 105.338 115.523 106.773 115.506C106.865 115.506 106.957 115.505 107.048 115.505C108.101 115.505 109.153 115.505 110.207 115.502H110.204Z" fill="black"/>
<path d="M157.309 204.255C157.309 203.158 157.329 202.059 157.304 200.961C157.273 199.679 157.947 199.124 159.152 199.117C161.348 199.104 163.544 199.095 165.739 199.115C167.007 199.126 167.727 199.784 167.75 201.018C167.792 203.259 167.781 205.501 167.762 207.742C167.751 209.042 166.898 209.694 165.757 209.746C163.612 209.843 161.456 209.82 159.308 209.743C157.878 209.692 157.322 208.994 157.309 207.548C157.304 206.999 157.305 206.45 157.305 205.9C157.305 205.35 157.305 204.803 157.305 204.253H157.31L157.309 204.255Z" fill="black"/>
<path d="M151.966 199.095C150.87 199.095 149.771 199.056 148.677 199.106C147.47 199.161 146.818 198.519 146.769 197.437C146.667 195.157 146.613 192.867 146.718 190.59C146.774 189.371 147.589 188.635 148.925 188.646C151.026 188.665 153.129 188.635 155.231 188.665C156.666 188.684 157.29 189.338 157.296 190.767C157.307 192.914 157.313 195.062 157.294 197.209C157.28 198.606 156.788 199.077 155.393 199.096C154.799 199.105 154.205 199.099 153.611 199.099C153.063 199.099 152.515 199.099 151.966 199.099V199.094V199.095Z" fill="black"/>
<path d="M157.299 172.959C157.299 174.058 157.288 175.157 157.301 176.257C157.316 177.513 156.591 178.144 155.454 178.179C153.166 178.25 150.875 178.248 148.587 178.182C147.411 178.147 146.744 177.358 146.708 176.215C146.641 174.065 146.661 171.912 146.669 169.759C146.675 168.439 147.588 167.853 148.696 167.804C150.935 167.704 153.186 167.702 155.423 167.823C156.587 167.887 157.499 168.438 157.321 169.94C157.202 170.934 157.299 171.952 157.298 172.96L157.299 172.959Z" fill="black"/>
<path d="M204.464 125.94C205.562 125.94 206.662 125.899 207.758 125.951C209.104 126.015 209.752 126.68 209.772 128.024C209.802 129.991 209.787 131.958 209.765 133.925C209.749 135.415 209.028 136.262 207.543 136.319C205.442 136.401 203.334 136.395 201.232 136.338C199.841 136.3 199.113 135.447 199.11 134.053C199.104 132.04 199.102 130.027 199.11 128.014C199.115 126.568 199.674 125.985 201.173 125.932C202.269 125.893 203.368 125.924 204.467 125.924V125.941L204.464 125.94Z" fill="black"/>
<path d="M157.3 131.082C157.3 132.089 157.302 133.095 157.3 134.102C157.295 135.461 156.651 136.277 155.305 136.324C153.111 136.402 150.909 136.443 148.72 136.317C147.536 136.25 146.698 135.5 146.692 134.156C146.683 132.143 146.648 130.129 146.684 128.117C146.711 126.582 147.318 125.966 148.863 125.935C151.013 125.894 153.164 125.895 155.314 125.948C156.845 125.985 157.298 126.518 157.301 128.062C157.304 129.069 157.301 130.075 157.301 131.082H157.3Z" fill="black"/>
<path d="M131.098 62.9115C132.105 62.9115 133.111 62.898 134.118 62.9152C135.427 62.9359 136.296 63.6644 136.34 64.9807C136.411 67.1282 136.4 69.2817 136.334 71.4304C136.292 72.7699 135.37 73.5644 134.011 73.5742C131.998 73.5888 129.985 73.5913 127.972 73.568C126.567 73.5522 125.982 72.9985 125.952 71.5526C125.907 69.3575 125.907 67.1599 125.952 64.9648C125.983 63.4798 126.586 62.9469 128.079 62.9115C128.583 62.8993 129.086 62.9066 129.589 62.9066C130.092 62.9066 130.596 62.9066 131.098 62.9066V62.9115Z" fill="black"/>
<path d="M162.531 115.506C163.719 115.506 164.908 115.544 166.094 115.495C167.21 115.45 167.722 116.048 167.745 117.04C167.798 119.368 167.809 121.7 167.76 124.029C167.735 125.237 166.888 125.867 165.788 125.904C163.553 125.981 161.31 125.979 159.075 125.884C157.954 125.836 157.265 125.193 157.291 123.914C157.339 121.631 157.329 119.345 157.295 117.062C157.279 115.971 157.703 115.458 158.83 115.498C160.062 115.542 161.297 115.507 162.53 115.507L162.531 115.506Z" fill="black"/>
<path d="M141.601 167.771C140.549 167.771 139.497 167.75 138.446 167.776C137.148 167.807 136.424 167.107 136.379 165.907C136.294 163.625 136.312 161.336 136.374 159.051C136.404 157.972 136.943 157.277 138.186 157.298C140.471 157.335 142.758 157.342 145.044 157.288C145.871 157.268 146.469 157.543 146.491 158.34C146.568 161.063 146.601 163.791 146.53 166.514C146.508 167.377 145.823 167.817 144.892 167.787C143.796 167.75 142.698 167.778 141.601 167.778V167.772V167.771Z" fill="black"/>
<path d="M78.5351 104.785C77.484 104.785 76.4317 104.784 75.3806 104.785C74.206 104.787 73.5167 104.285 73.5167 103.032C73.5167 100.792 73.4556 98.5503 73.5228 96.3124C73.5643 94.9386 74.2427 94.3642 75.6226 94.3483C77.6343 94.3251 79.6461 94.3251 81.6579 94.3519C83.1392 94.3715 84.0058 95.2112 84.0107 96.6057C84.0192 98.6163 84.0168 100.627 83.9862 102.637C83.9618 104.229 83.4399 104.741 81.8266 104.781C80.7302 104.809 79.6314 104.786 78.5351 104.785Z" fill="black"/>
<path d="M20.9257 99.7883C20.9257 100.93 20.8609 102.076 20.944 103.213C21.0234 104.291 20.4759 104.743 19.5482 104.76C17.1282 104.804 14.7058 104.815 12.287 104.758C11.1198 104.73 10.4928 104.014 10.4891 102.826C10.483 100.679 10.4476 98.5307 10.5111 96.3857C10.5478 95.1537 11.3887 94.4216 12.5351 94.3715C14.7681 94.2725 17.0121 94.2969 19.2476 94.38C20.3072 94.4191 21.0124 94.9716 20.9354 96.228C20.8633 97.4111 20.9196 98.6016 20.9196 99.7896C20.922 99.7896 20.9232 99.7896 20.9257 99.7896V99.7883Z" fill="black"/>
<path d="M141.725 178.211C142.687 178.211 143.649 178.198 144.61 178.215C146.062 178.239 146.714 178.8 146.756 180.278C146.816 182.428 146.784 184.581 146.742 186.734C146.718 187.988 146.057 188.66 144.753 188.65C142.647 188.634 140.54 188.662 138.434 188.628C136.967 188.605 136.345 187.979 136.332 186.55C136.312 184.49 136.313 182.429 136.341 180.368C136.36 178.977 137.163 178.226 138.566 178.216C139.619 178.209 140.672 178.215 141.725 178.211Z" fill="black"/>
<path d="M141.762 136.321C142.723 136.321 143.683 136.297 144.643 136.325C146.145 136.369 146.72 136.883 146.758 138.402C146.811 140.504 146.761 142.609 146.746 144.712C146.738 145.969 146.117 146.716 144.843 146.739C142.649 146.779 140.449 146.828 138.26 146.724C137.07 146.668 136.261 146.038 136.308 144.617C136.377 142.561 136.308 140.502 136.34 138.444C136.361 137.072 137.088 136.366 138.47 136.332C139.567 136.303 140.666 136.325 141.763 136.325V136.321H141.762Z" fill="black"/>
<path d="M36.7339 52.5079C33.1161 52.5079 29.4996 52.5189 25.8818 52.5043C22.8189 52.4921 20.9196 50.5915 20.9183 47.5482C20.9147 40.4043 21.0161 33.2592 20.8731 26.1189C20.8169 23.3115 23.4398 20.8169 26.1274 20.8707C33.2677 21.0149 40.4128 20.9135 47.5567 20.9208C50.4888 20.9233 52.4786 22.8666 52.4859 25.7902C52.5067 33.1626 52.6057 40.5363 52.4468 47.9051C52.3796 51.0425 51.0889 52.3173 47.8586 52.4652C44.1577 52.6338 40.4421 52.5043 36.7339 52.5067V52.5079Z" fill="black"/>
<path d="M199.1 36.784C199.1 40.4959 198.967 44.2127 199.144 47.9161C199.278 50.7259 197.191 52.4493 194.801 52.4737C187.242 52.5532 179.681 52.5324 172.121 52.4835C169.586 52.4676 167.81 50.7223 167.792 48.1898C167.737 40.6304 167.728 33.0685 167.804 25.5091C167.832 22.6845 169.836 20.9282 172.702 20.9245C179.805 20.9172 186.907 20.9159 194.008 20.9196C197.3 20.922 199.1 22.6992 199.1 25.9234C199.1 29.5436 199.1 33.1626 199.1 36.7828V36.784Z" fill="black"/>
<path d="M36.7095 199.101C32.9548 199.101 29.2013 199.105 25.4467 199.1C22.9643 199.096 20.944 197.176 20.933 194.665C20.8988 187.202 20.9025 179.739 20.9293 172.277C20.9379 169.802 22.9142 167.804 25.5053 167.785C33.0587 167.732 40.6132 167.738 48.1678 167.787C50.721 167.804 52.4859 169.654 52.4957 172.223C52.5226 179.686 52.5213 187.148 52.4957 194.611C52.4871 196.968 50.7846 199.3 47.9722 199.153C44.2286 198.955 40.4666 199.104 36.7119 199.102L36.7095 199.101Z" fill="black"/>
</g>
<defs>
<clipPath id="clip0_83_149">
<rect width="220" height="220" fill="white"/>
</clipPath>
</defs>
</svg>
