<svg width="166" height="33" viewBox="0 0 166 33" fill="none" xmlns="http://www.w3.org/2000/svg">
<path d="M64.1627 0.460031C66.7494 5.08706 70.3696 8.16982 75.6961 8.08076C81.0008 7.99313 84.5835 4.89887 87.036 0.135376C86.2493 4.44493 84.4969 7.89258 80.7554 10.1307C77.6693 11.9823 77.0024 13.8038 77.8829 17.3276C79.1994 22.6025 78.5267 27.6303 75.9342 32.4111C75.8079 32.6143 75.6711 32.8109 75.5243 33C74.1394 30.951 73.1813 28.6464 72.7066 26.2226C72.1085 23.2404 72.2788 20.1562 73.2017 17.2572C74.2122 13.9935 73.5842 12.0858 70.6323 10.3476C67.0381 8.24165 65.1067 5.07987 64.2175 1.15387C64.1863 0.923782 64.168 0.692145 64.1627 0.460031Z" fill="#F5F5F5"/>
<path d="M72.8148 2.96384C72.8318 2.69211 72.8704 2.42216 72.9303 2.15652C73.2667 0.903873 74.3045 0.0419614 75.4939 0.00173887C76.5708 -0.0413567 77.5884 0.72 78.0532 1.90656C78.9193 4.12311 77.4224 6.49049 75.2601 6.32098C73.8426 6.20319 72.7975 4.85861 72.8148 2.96384Z" fill="#F5F5F5"/>
<path d="M37.4727 15.7244H21.9322C21.419 15.7247 20.9268 15.9278 20.5639 16.289C20.201 16.6502 19.9969 17.1399 19.9965 17.6507V19.4981H35.537C36.0503 19.4977 36.5424 19.2946 36.9053 18.9335C37.2683 18.5723 37.4723 18.0825 37.4727 17.5717V15.7244Z" fill="#F5F5F5"/>
<path d="M58.471 15.5333C56.4256 15.5333 55.5292 17.1135 54.9778 18.4811C53.9674 20.9907 52.8025 23.4643 51.5683 26.0831C51.1353 27.0082 50.6849 27.9506 50.2316 28.9346C49.7697 27.9448 49.3121 26.9824 48.8647 26.0371C47.5756 23.3207 46.3573 20.7536 45.2978 18.1363C44.6035 16.4197 43.6407 15.621 42.2665 15.621C41.6675 15.621 40.9775 15.7718 40.1576 16.0835L39.7664 16.2272L39.9425 16.605C40.5401 17.8978 41.1247 19.1907 41.7093 20.4836C43.4415 24.3176 45.2343 28.281 47.3187 31.9987C47.7243 32.717 49.5272 32.8003 50.2836 32.8003C51.167 32.8003 52.7072 32.7026 53.0782 32.0461C55.2203 28.2523 57.0737 24.2214 58.8651 20.3212C59.4579 19.0293 60.0555 17.7389 60.6579 16.4498L60.8412 16.0591L60.4327 15.9154C59.8051 15.679 59.1419 15.5498 58.471 15.5333Z" fill="#F5F5F5"/>
<path d="M3.91038 29.0022V17.431C3.91038 17.1779 3.86027 16.9273 3.7629 16.6935C3.66553 16.4597 3.52282 16.2473 3.34292 16.0684C3.16302 15.8895 2.94946 15.7476 2.71444 15.6509C2.47942 15.5541 2.22756 15.5045 1.97323 15.5046H0V32.9569H16.5697V30.9285C16.5697 30.4176 16.3657 29.9277 16.0027 29.5664C15.6397 29.2051 15.1474 29.0022 14.634 29.0022H3.91038Z" fill="#F5F5F5"/>
<path d="M19.9965 31.1612V32.9957H35.7304C35.9846 32.9957 36.2363 32.9458 36.4712 32.849C36.706 32.7522 36.9194 32.6103 37.0992 32.4314C37.2789 32.2526 37.4215 32.0402 37.5188 31.8065C37.6161 31.5728 37.6661 31.3223 37.6661 31.0693V29.2349H21.9322C21.4188 29.2349 20.9265 29.4378 20.5635 29.7991C20.2005 30.1603 19.9965 30.6503 19.9965 31.1612Z" fill="#F5F5F5"/>
<path d="M126.476 27.7165C124.789 24.0821 123.042 20.3242 121.258 16.6625C120.743 15.6066 119.348 15.226 118.214 15.226C116.685 15.226 115.403 15.8336 114.947 16.7731C113.202 20.3644 111.546 23.9226 109.794 27.6834C109.111 29.1496 108.421 30.6278 107.724 32.118L107.539 32.5288L107.972 32.6581C108.601 32.8624 109.256 32.9738 109.917 32.9885C111.577 32.9885 112.668 32.0777 113.454 30.0365C114.432 27.5067 115.62 25.0474 116.864 22.4459C117.297 21.5452 117.742 20.6201 118.188 19.6691C118.647 20.656 119.098 21.6098 119.539 22.5421C120.774 25.1494 121.941 27.6116 122.931 30.114C123.42 31.3509 124.307 32.9971 126.336 32.9971C127.005 32.9796 127.667 32.8495 128.292 32.6121L128.698 32.4685L128.516 32.0792C127.832 30.6254 127.152 29.1712 126.476 27.7165Z" fill="#F5F5F5"/>
<path d="M108.078 15.5492H92.4201C91.9068 15.5492 91.4144 15.7521 91.0514 16.1134C90.6884 16.4747 90.4844 16.9647 90.4844 17.4756V19.4781H97.4983V30.9228C97.4987 31.4336 97.7027 31.9234 98.0657 32.2845C98.4286 32.6457 98.9207 32.8488 99.434 32.8492H101.621V19.4292H106.149C106.662 19.4273 107.153 19.2231 107.514 18.8615C107.876 18.4998 108.078 18.0101 108.078 17.5V15.5492Z" fill="#F5F5F5"/>
<path d="M127.823 19.4565H134.56V32.7615H136.813C137.326 32.7615 137.819 32.5586 138.182 32.1973C138.545 31.8361 138.749 31.3461 138.749 30.8352V19.333H143.349C143.862 19.333 144.355 19.13 144.718 18.7687C145.081 18.4075 145.285 17.9175 145.285 17.4066V15.5176H129.759C129.504 15.5176 129.253 15.5674 129.018 15.6642C128.783 15.761 128.57 15.9029 128.39 16.0818C128.21 16.2607 128.067 16.473 127.97 16.7068C127.873 16.9405 127.823 17.191 127.823 17.4439V19.4565Z" fill="#F5F5F5"/>
<path d="M148.416 30.9587V32.8061H164.064C164.319 32.8061 164.57 32.7563 164.805 32.6594C165.04 32.5626 165.253 32.4207 165.433 32.2419C165.613 32.063 165.755 31.8506 165.853 31.6169C165.95 31.3832 166 31.1327 166 30.8797V29.0323H150.351C149.838 29.0323 149.346 29.2353 148.983 29.5966C148.62 29.9578 148.416 30.4478 148.416 30.9587Z" fill="#F5F5F5"/>
<path d="M165.895 15.5046H150.366C149.852 15.5046 149.36 15.7076 148.997 16.0689C148.634 16.4301 148.43 16.9201 148.43 17.431V19.2611H163.959C164.213 19.2611 164.465 19.2113 164.7 19.1145C164.935 19.0177 165.148 18.8758 165.328 18.6969C165.507 18.518 165.65 18.3057 165.747 18.072C165.845 17.8382 165.895 17.5877 165.895 17.3348V15.5046Z" fill="#F5F5F5"/>
<path d="M151.486 26.0659H161.25C161.763 26.0655 162.255 25.8625 162.618 25.5013C162.981 25.1401 163.185 24.6503 163.185 24.1395V22.3267H153.422C152.908 22.3267 152.416 22.5294 152.053 22.8904C151.69 23.2513 151.486 23.7409 151.486 24.2516V26.0659Z" fill="#F5F5F5"/>
<path d="M28.8277 22.4631H25.0342C24.7793 22.4628 24.5268 22.5125 24.2913 22.6095C24.0557 22.7065 23.8417 22.8488 23.6616 23.0284C23.4815 23.2079 23.3387 23.4211 23.2416 23.6556C23.1445 23.8902 23.0949 24.1416 23.0957 24.3953V26.1895H32.7237C32.9788 26.1895 33.2315 26.1393 33.4671 26.0417C33.7027 25.9442 33.9166 25.8013 34.0965 25.6212C34.2764 25.4411 34.4187 25.2274 34.5153 24.9923C34.6119 24.7573 34.6609 24.5055 34.6594 24.2516V22.4631H28.8277Z" fill="#F5F5F5"/>
</svg>
