<svg width="22" height="22" viewBox="0 0 22 22" fill="none" xmlns="http://www.w3.org/2000/svg">
<path opacity="0.4" d="M18.2187 17.1875C18.2188 17.639 18.12 18.0851 17.9293 18.4945C17.7386 18.9038 17.4606 19.2664 17.1148 19.5568C16.7691 19.8472 16.3639 20.0585 15.9279 20.1756C15.4918 20.2928 15.0353 20.3131 14.5906 20.2351C14.1458 20.1571 13.7235 19.9827 13.3533 19.7241C12.9831 19.4655 12.674 19.1291 12.4477 18.7383C12.2215 18.3475 12.0834 17.912 12.0434 17.4622C12.0034 17.0124 12.0623 16.5593 12.216 16.1348L7.6613 13.2086C7.22629 13.6353 6.67497 13.924 6.07649 14.0386C5.478 14.1531 4.85902 14.0884 4.29719 13.8525C3.73535 13.6166 3.25569 13.2201 2.91838 12.7126C2.58107 12.2051 2.40112 11.6093 2.40112 11C2.40112 10.3906 2.58107 9.79487 2.91838 9.2874C3.25569 8.77993 3.73535 8.38338 4.29719 8.14748C4.85902 7.91158 5.478 7.84685 6.07649 7.9614C6.67497 8.07596 7.22629 8.3647 7.6613 8.7914L12.216 5.86952C11.9552 5.15284 11.9676 4.36519 12.2508 3.65707C12.534 2.94895 13.0682 2.37002 13.7514 2.03089C14.4345 1.69176 15.2186 1.61622 15.9539 1.8187C16.6892 2.02118 17.3241 2.48748 17.7373 3.1285C18.1505 3.76953 18.313 4.54032 18.1938 5.29361C18.0747 6.0469 17.6821 6.72987 17.0912 7.212C16.5002 7.69413 15.7524 7.94164 14.9905 7.90721C14.2286 7.87278 13.5061 7.55885 12.9611 7.02538L8.40638 9.95156C8.65254 10.6318 8.65254 11.3768 8.40638 12.057L12.9611 14.9832C13.3959 14.5576 13.9466 14.2697 14.5443 14.1555C15.142 14.0413 15.76 14.1058 16.3212 14.3411C16.8823 14.5764 17.3616 14.9719 17.6992 15.4782C18.0367 15.9845 18.2174 16.579 18.2187 17.1875Z" fill="#29695D"/>
<path d="M8.57649 10.9911C8.57655 11.4426 8.47776 11.8887 8.28706 12.298C8.09636 12.7073 7.81837 13.0699 7.47261 13.3604C7.12685 13.6508 6.72171 13.862 6.28563 13.9792C5.84954 14.0964 5.39309 14.1167 4.94833 14.0387C4.50356 13.9607 4.08126 13.7863 3.71108 13.5277C3.3409 13.2691 3.03181 12.9326 2.80551 12.5419C2.57922 12.1511 2.44121 11.7155 2.40117 11.2658C2.36114 10.816 2.42004 10.3629 2.57375 9.93832L7.66134 13.2087C7.22633 13.6354 6.675 13.9241 6.07652 14.0387C5.47804 14.1533 4.85906 14.0885 4.29723 13.8526C3.73539 13.6167 3.25573 13.2202 2.91842 12.7127C2.58111 12.2052 2.40116 11.6095 2.40116 11.0001C2.40116 10.3908 2.58111 9.79499 2.91842 9.28752C3.25573 8.78005 3.73539 8.3835 4.29723 8.1476C4.85906 7.9117 5.47804 7.84697 6.07652 7.96153C6.675 8.07608 7.22633 8.36482 7.66134 8.79152L12.216 5.86964C11.9552 5.15297 11.9676 4.36531 12.2508 3.6572C12.5341 2.94908 13.0683 2.37014 13.7514 2.03101C14.4345 1.69189 15.2186 1.61634 15.9539 1.81882C16.6892 2.0213 17.3241 2.4876 17.7373 3.12862C18.1506 3.76965 18.3131 4.54045 18.1939 5.29374C18.0747 6.04703 17.6821 6.72999 17.0912 7.21212C16.5003 7.69426 15.7524 7.94176 14.9905 7.90733C14.2286 7.87291 13.5061 7.55897 12.9611 7.0255L8.40642 9.95168C8.65258 10.6319 8.65258 11.3769 8.40642 12.0571L3.31883 8.78676C3.7537 8.36116 4.30441 8.07325 4.90207 7.95905C5.49972 7.84484 6.11779 7.90941 6.67894 8.14467C7.24009 8.37994 7.7194 8.77545 8.05692 9.28173C8.39443 9.78801 8.57516 10.3826 8.57649 10.9911Z" fill="#29695D"/>
</svg>
