<svg width="31" height="30" viewBox="0 0 31 30" fill="none" xmlns="http://www.w3.org/2000/svg">
<path d="M21.75 4.375H9.25C5.5 4.375 3 6.25 3 10.625V19.375C3 23.75 5.5 25.625 9.25 25.625H21.75C25.5 25.625 28 23.75 28 19.375V10.625C28 6.25 25.5 4.375 21.75 4.375ZM22.3375 11.9875L18.425 15.1125C17.6 15.775 16.55 16.1 15.5 16.1C14.45 16.1 13.3875 15.775 12.575 15.1125L8.6625 11.9875C8.2625 11.6625 8.2 11.0625 8.5125 10.6625C8.8375 10.2625 9.425 10.1875 9.825 10.5125L13.7375 13.6375C14.6875 14.4 16.3 14.4 17.25 13.6375L21.1625 10.5125C21.5625 10.1875 22.1625 10.25 22.475 10.6625C22.8 11.0625 22.7375 11.6625 22.3375 11.9875Z" fill="#29695D"/>
</svg>
