<svg width="32" height="32" viewBox="0 0 32 32" fill="none" xmlns="http://www.w3.org/2000/svg">
<path d="M30.7075 9.70746L26.97 13.445C26.215 22.1975 18.8338 29 10 29C8.185 29 6.68875 28.7125 5.5525 28.145C4.63625 27.6862 4.26125 27.195 4.1675 27.055C4.08391 26.9296 4.02972 26.787 4.009 26.6377C3.98828 26.4885 4.00155 26.3365 4.04783 26.1931C4.0941 26.0497 4.17219 25.9186 4.27625 25.8096C4.3803 25.7006 4.50764 25.6166 4.64875 25.5637C4.68125 25.5512 7.67875 24.4 9.5825 22.2087C8.52673 21.3407 7.6051 20.3213 6.8475 19.1837C5.2975 16.8825 3.5625 12.885 4.0975 6.91121C4.11446 6.72139 4.1853 6.54037 4.30169 6.38946C4.41808 6.23856 4.57517 6.12405 4.75445 6.05943C4.93373 5.99481 5.12775 5.98277 5.31365 6.02471C5.49955 6.06666 5.66959 6.16086 5.80375 6.29621C5.8475 6.33996 9.96375 10.4337 14.9963 11.7612V11C14.9943 10.2017 15.1522 9.41113 15.4604 8.67479C15.7687 7.93846 16.2212 7.27125 16.7913 6.71246C17.3449 6.15961 18.0036 5.72326 18.7286 5.42914C19.4536 5.13501 20.2302 4.98908 21.0125 4.99996C22.062 5.01031 23.0909 5.29202 23.9992 5.81771C24.9076 6.3434 25.6644 7.09518 26.1963 7.99996H30C30.1979 7.9998 30.3914 8.05836 30.556 8.16824C30.7206 8.27811 30.8489 8.43434 30.9246 8.61716C31.0004 8.79999 31.0202 9.00118 30.9815 9.19526C30.9429 9.38935 30.8475 9.5676 30.7075 9.70746Z" fill="#29695D"/>
</svg>
